<mxfile host="app.diagrams.net" modified="2023-07-19T12:40:07.570Z" agent="Mozilla/5.0 (Macintosh; Intel Mac OS X 10_15_7) AppleWebKit/537.36 (KHTML, like Gecko) Chrome/114.0.0.0 Safari/537.36 Edg/114.0.1823.82" etag="mecY0qNHRuMF4jbVurvP" version="21.6.3" type="google">
  <diagram id="yPxyJZ8AM_hMuL3Unpa9" name="complex gitflow">
    <mxGraphModel grid="0" page="1" gridSize="10" guides="1" tooltips="1" connect="1" arrows="1" fold="1" pageScale="1" pageWidth="1100" pageHeight="850" math="0" shadow="0">
      <root>
        <mxCell id="0" />
        <mxCell id="1" parent="0" />
        <mxCell id="Q6RhIF0yRRc2ql-Qrk2--13" value="" style="shape=image;verticalLabelPosition=bottom;labelBackgroundColor=default;verticalAlign=top;aspect=fixed;imageAspect=0;image=https://encrypted-tbn0.gstatic.com/images?q=tbn:ANd9GcRVdnhL5aNqa2aDoIRZ7V6HxjVqfPTem9NNNa6yrYKZ&amp;s;" vertex="1" parent="1">
          <mxGeometry x="2297" y="763" width="376.87" height="211.88" as="geometry" />
        </mxCell>
        <mxCell id="Q6RhIF0yRRc2ql-Qrk2--48" value="" style="whiteSpace=wrap;html=1;fillColor=none;dashed=1;dashPattern=12 12;strokeWidth=3;strokeColor=#FF0000;resizable=0;fixedWidth=0;imageAspect=0;imageWidth=24;imageHeight=30;movable=0;rotatable=0;deletable=0;editable=0;locked=1;connectable=0;" vertex="1" parent="1">
          <mxGeometry x="260" y="110" width="2410" height="1350" as="geometry" />
        </mxCell>
        <mxCell id="Q6RhIF0yRRc2ql-Qrk2--41" value="" style="rounded=1;whiteSpace=wrap;html=1;fillColor=none;strokeColor=#9673a6;strokeWidth=5;" vertex="1" parent="1">
          <mxGeometry x="1916" y="261" width="370" height="1134" as="geometry" />
        </mxCell>
        <mxCell id="Q6RhIF0yRRc2ql-Qrk2--42" value="&lt;span style=&quot;font-size: 25px;&quot;&gt;&lt;b&gt;Analytics &amp;amp; BI&lt;br&gt;&lt;/b&gt;&lt;/span&gt;" style="rounded=1;whiteSpace=wrap;html=1;fillColor=none;strokeColor=#9673a6;strokeWidth=5;" vertex="1" parent="1">
          <mxGeometry x="1916" y="141" width="370" height="80" as="geometry" />
        </mxCell>
        <mxCell id="Q6RhIF0yRRc2ql-Qrk2--43" value="" style="edgeStyle=orthogonalEdgeStyle;rounded=0;orthogonalLoop=1;jettySize=auto;html=1;shape=flexArrow;fillColor=#999999;strokeWidth=5;" edge="1" parent="1" source="Q6RhIF0yRRc2ql-Qrk2--34" target="Q6RhIF0yRRc2ql-Qrk2--41">
          <mxGeometry relative="1" as="geometry" />
        </mxCell>
        <mxCell id="Q6RhIF0yRRc2ql-Qrk2--34" value="" style="rounded=1;whiteSpace=wrap;html=1;fillColor=none;strokeColor=#FFB366;strokeWidth=5;" vertex="1" parent="1">
          <mxGeometry x="1464" y="261" width="370" height="1134" as="geometry" />
        </mxCell>
        <mxCell id="Q6RhIF0yRRc2ql-Qrk2--38" value="" style="edgeStyle=orthogonalEdgeStyle;rounded=0;orthogonalLoop=1;jettySize=auto;html=1;shape=flexArrow;strokeColor=#000000;fillColor=#999999;strokeWidth=5;" edge="1" parent="1" source="Q6RhIF0yRRc2ql-Qrk2--30" target="Q6RhIF0yRRc2ql-Qrk2--34">
          <mxGeometry relative="1" as="geometry" />
        </mxCell>
        <mxCell id="Q6RhIF0yRRc2ql-Qrk2--39" value="" style="edgeStyle=orthogonalEdgeStyle;rounded=0;orthogonalLoop=1;jettySize=auto;html=1;strokeWidth=2;" edge="1" parent="1" source="Q6RhIF0yRRc2ql-Qrk2--30" target="Q6RhIF0yRRc2ql-Qrk2--25">
          <mxGeometry relative="1" as="geometry" />
        </mxCell>
        <mxCell id="Q6RhIF0yRRc2ql-Qrk2--30" value="" style="rounded=1;whiteSpace=wrap;html=1;fillColor=none;strokeColor=#6c8ebf;strokeWidth=5;" vertex="1" parent="1">
          <mxGeometry x="1007" y="261" width="370" height="1134" as="geometry" />
        </mxCell>
        <mxCell id="Q6RhIF0yRRc2ql-Qrk2--32" value="" style="edgeStyle=orthogonalEdgeStyle;rounded=0;orthogonalLoop=1;jettySize=auto;html=1;shape=flexArrow;fillColor=#999999;strokeWidth=4;" edge="1" parent="1" source="Q6RhIF0yRRc2ql-Qrk2--25" target="Q6RhIF0yRRc2ql-Qrk2--30">
          <mxGeometry relative="1" as="geometry" />
        </mxCell>
        <mxCell id="Q6RhIF0yRRc2ql-Qrk2--25" value="" style="rounded=1;whiteSpace=wrap;html=1;fillColor=none;strokeColor=#82b366;strokeWidth=5;" vertex="1" parent="1">
          <mxGeometry x="550" y="261" width="370" height="1134" as="geometry" />
        </mxCell>
        <UserObject label="&lt;font style=&quot;font-size: 40px;&quot;&gt;Bare Barrel Dev Diagram&lt;/font&gt;" link="https://nvie.com/posts/a-successful-git-branching-model/" id="9hBKPDzoitwpIBdzFDQ7-2">
          <mxCell style="text;whiteSpace=wrap;html=1;fontStyle=1;fontSize=16;" vertex="1" parent="1">
            <mxGeometry x="133" y="7" width="566" height="20" as="geometry" />
          </mxCell>
        </UserObject>
        <UserObject label="&lt;a href=&quot;https://github.com/gr3yw0rm/PPC-Automation&quot; style=&quot;font-size: 20px;&quot;&gt;gr3yw0rm/PPC-Automation (github.com)&lt;/a&gt;" link="https://github.com/gr3yw0rm/PPC-Automation" id="9hBKPDzoitwpIBdzFDQ7-3">
          <mxCell style="text;whiteSpace=wrap;html=1;fontSize=20;" vertex="1" parent="1">
            <mxGeometry x="200" y="55" width="408.62" height="20" as="geometry" />
          </mxCell>
        </UserObject>
        <mxCell id="Q6RhIF0yRRc2ql-Qrk2--4" value="" style="shape=image;verticalLabelPosition=bottom;labelBackgroundColor=default;verticalAlign=top;aspect=fixed;imageAspect=0;image=data:image/png,iVBORw0KGgoAAAANSUhEUgAACToAAAk6CAYAAAAPbjF+AAAgAElEQVR4nOzaMQEAIAzAsIE6XvyLARs9Egt9u+bcNwAAAAAAAAAAAGFbHAAAAAAAAAAAoM7oBAAAAAAAAAAA5BmdAAAAAAAAAACAPKMTAAAAAAAAAACQZ3QCAAAAAAAAAADyjE4AAAAAAAAAAECe0QkAAAAAAAAAAMgzOgEAAAAAAAAAAHlGJwAAAAAAAAAAIM/oBAAAAAAAAAAA5BmdAAAAAAAAAACAPKMTAAAAAAAAAACQZ3QCAAAAAAAAAADyjE4AAAAAAAAAAECe0QkAAAAAAAAAAMgzOgEAAAAAAAAAAHlGJwAAAAAAAAAAIM/oBAAAAAAAAAAA5BmdAAAAAAAAAACAPKMTAAAAAAAAAACQZ3QCAAAAAAAAAADyjE4AAAAAAAAAAECe0QkAAAAAAAAAAMgzOgEAAAAAAAAAAHlGJwAAAAAAAAAAIM/oBAAAAAAAAAAA5BmdAAAAAAAAAACAPKMTAAAAAAAAAACQZ3QCAAAAAAAAAADyjE4AAAAAAAAAAECe0QkAAAAAAAAAAMgzOgEAAAAAAAAAAHlGJwAAAAAAAAAAIM/oBAAAAAAAAAAA5BmdAAAAAAAAAACAPKMTAAAAAAAAAACQZ3QCAAAAAAAAAADyjE4AAAAAAAAAAECe0QkAAAAAAAAAAMgzOgEAAAAAAAAAAHlGJwAAAAAAAAAAIM/oBAAAAAAAAAAA5BmdAAAAAAAAAACAPKMTAAAAAAAAAACQZ3QCAAAAAAAAAADyjE4AAAAAAAAAAECe0QkAAAAAAAAAAMgzOgEAAAAAAAAAAHlGJwAAAAAAAAAAIM/oBAAAAAAAAAAA5BmdAAAAAAAAAACAPKMTAAAAAAAAAACQZ3QCAAAAAAAAAADyjE4AAAAAAAAAAECe0QkAAAAAAAAAAMgzOgEAAAAAAAAAAHlGJwAAAAAAAAAAIM/oBAAAAAAAAAAA5BmdAAAAAAAAAACAPKMTAAAAAAAAAACQZ3QCAAAAAAAAAADyjE4AAAAAAAAAAECe0QkAAAAAAAAAAMgzOgEAAAAAAAAAAHlGJwAAAAAAAAAAIM/oBAAAAAAAAAAA5BmdAAAAAAAAAACAPKMTAAAAAAAAAACQZ3QCAAAAAAAAAADyjE4AAAAAAAAAAECe0QkAAAAAAAAAAMgzOgEAAAAAAAAAAHlGJwAAAAAAAAAAIM/oBAAAAAAAAAAA5BmdAAAAAAAAAACAPKMTAAAAAAAAAACQZ3QCAAAAAAAAAADyjE4AAAAAAAAAAECe0QkAAAAAAAAAAMgzOgEAAAAAAAAAAHlGJwAAAAAAAAAAIM/oBAAAAAAAAAAA5BmdAAAAAAAAAACAPKMTAAAAAAAAAACQZ3QCAAAAAAAAAADyjE4AAAAAAAAAAECe0QkAAAAAAAAAAMgzOgEAAAAAAAAAAHlGJwAAAAAAAAAAIM/oBAAAAAAAAAAA5BmdAAAAAAAAAACAPKMTAAAAAAAAAACQZ3QCAAAAAAAAAADyjE4AAAAAAAAAAECe0QkAAAAAAAAAAMgzOgEAAAAAAAAAAHlGJwAAAAAAAAAAIM/oBAAAAAAAAAAA5BmdAAAAAAAAAACAPKMTAAAAAAAAAACQZ3QCAAAAAAAAAADyjE4AAAAAAAAAAECe0QkAAAAAAAAAAMgzOgEAAAAAAAAAAHlGJwAAAAAAAAAAIM/oBAAAAAAAAAAA5BmdAAAAAAAAAACAPKMTAAAAAAAAAACQZ3QCAAAAAAAAAADyjE4AAAAAAAAAAECe0QkAAAAAAAAAAMgzOgEAAAAAAAAAAHlGJwAAAAAAAAAAIM/oBAAAAAAAAAAA5BmdAAAAAAAAAACAPKMTAAAAAAAAAACQZ3QCAAAAAAAAAADyjE4AAAAAAAAAAECe0QkAAAAAAAAAAMgzOgEAAAAAAAAAAHlGJwAAAAAAAAAAIM/oBAAAAAAAAAAA5BmdAAAAAAAAAACAPKMTAAAAAAAAAACQZ3QCAAAAAAAAAADyjE4AAAAAAAAAAECe0QkAAAAAAAAAAMgzOgEAAAAAAAAAAHlGJwAAAAAAAAAAIM/oBAAAAAAAAAAA5BmdAAAAAAAAAACAPKMTAAAAAAAAAACQZ3QCAAAAAAAAAADyjE4AAAAAAAAAAECe0QkAAAAAAAAAAMgzOgEAAAAAAAAAAHlGJwAAAAAAAAAAIM/oBAAAAAAAAAAA5BmdAAAAAAAAAACAPKMTAAAAAAAAAACQZ3QCAAAAAAAAAADyjE4AAAAAAAAAAECe0QkAAAAAAAAAAMgzOgEAAAAAAAAAAHlGJwAAAAAAAAAAIM/oBAAAAAAAAAAA5BmdAAAAAAAAAACAPKMTAAAAAAAAAACQZ3QCAAAAAAAAAADyjE4AAAAAAAAAAECe0QkAAAAAAAAAAMgzOgEAAAAAAAAAAHlGJwAAAAAAAAAAIM/oBAAAAAAAAAAA5BmdAAAAAAAAAACAPKMTAAAAAAAAAACQZ3QCAAAAAAAAAADyjE4AAAAAAAAAAECe0QkAAAAAAAAAAMgzOgEAAAAAAAAAAHlGJwAAAAAAAAAAIM/oBAAAAAAAAAAA5BmdAAAAAAAAAACAPKMTAAAAAAAAAACQZ3QCAAAAAAAAAADyjE4AAAAAAAAAAECe0QkAAAAAAAAAAMgzOgEAAAAAAAAAAHlGJwAAAAAAAAAAIM/oBAAAAAAAAAAA5BmdAAAAAAAAAACAPKMTAAAAAAAAAACQZ3QCAAAAAAAAAADyjE4AAAAAAAAAAECe0QkAAAAAAAAAAMgzOgEAAAAAAAAAAHlGJwAAAAAAAAAAIM/oBAAAAAAAAAAA5BmdAAAAAAAAAACAPKMTAAAAAAAAAACQZ3QCAAAAAAAAAADyjE4AAAAAAAAAAECe0QkAAAAAAAAAAMgzOgEAAAAAAAAAAHlGJwAAAAAAAAAAIM/oBAAAAAAAAAAA5BmdAAAAAAAAAACAPKMTAAAAAAAAAACQZ3QCAAAAAAAAAADyjE4AAAAAAAAAAECe0QkAAAAAAAAAAMgzOgEAAAAAAAAAAHlGJwAAAAAAAAAAIM/oBAAAAAAAAAAA5BmdAAAAAAAAAACAPKMTAAAAAAAAAACQZ3QCAAAAAAAAAADyjE4AAAAAAAAAAECe0QkAAAAAAAAAAMgzOgEAAAAAAAAAAHlGJwAAAAAAAAAAIM/oBAAAAAAAAAAA5BmdAAAAAAAAAACAPKMTAAAAAAAAAACQZ3QCAAAAAAAAAADyjE4AAAAAAAAAAECe0QkAAAAAAAAAAMgzOgEAAAAAAAAAAHlGJwAAAAAAAAAAIM/oBAAAAAAAAAAA5BmdAAAAAAAAAACAPKMTAAAAAAAAAACQZ3QCAAAAAAAAAADyjE4AAAAAAAAAAECe0QkAAAAAAAAAAMgzOgEAAAAAAAAAAHlGJwAAAAAAAAAAIM/oBAAAAAAAAAAA5BmdAAAAAAAAAACAPKMTAAAAAAAAAACQZ3QCAAAAAAAAAADyjE4AAAAAAAAAAECe0QkAAAAAAAAAAMgzOgEAAAAAAAAAAHlGJwAAAAAAAAAAIM/oBAAAAAAAAAAA5BmdAAAAAAAAAACAPKMTAAAAAAAAAACQZ3QCAAAAAAAAAADyjE4AAAAAAAAAAECe0QkAAAAAAAAAAMgzOgEAAAAAAAAAAHlGJwAAAAAAAAAAIM/oBAAAAAAAAAAA5BmdAAAAAAAAAACAPKMTAAAAAAAAAACQZ3QCAAAAAAAAAADyjE4AAAAAAAAAAECe0QkAAAAAAAAAAMgzOgEAAAAAAAAAAHlGJwAAAAAAAAAAIM/oBAAAAAAAAAAA5BmdAAAAAAAAAACAPKMTAAAAAAAAAACQZ3QCAAAAAAAAAADyjE4AAAAAAAAAAECe0QkAAAAAAAAAAMgzOgEAAAAAAAAAAHlGJwAAAAAAAAAAIM/oBAAAAAAAAAAA5BmdAAAAAAAAAACAPKMTAAAAAAAAAACQZ3QCAAAAAAAAAADyjE4AAAAAAAAAAECe0QkAAAAAAAAAAMgzOgEAAAAAAAAAAHlGJwAAAAAAAAAAIM/oBAAAAAAAAAAA5BmdAAAAAAAAAACAPKMTAAAAAAAAAACQZ3QCAAAAAAAAAADyjE4AAAAAAAAAAECe0QkAAAAAAAAAAMgzOgEAAAAAAAAAAHlGJwAAAAAAAAAAIM/oBAAAAAAAAAAA5BmdAAAAAAAAAACAPKMTAAAAAAAAAACQZ3QCAAAAAAAAAADyjE4AAAAAAAAAAECe0QkAAAAAAAAAAMgzOgEAAAAAAAAAAHlGJwAAAAAAAAAAIM/oBAAAAAAAAAAA5BmdAAAAAAAAAACAPKMTAAAAAAAAAACQZ3QCAAAAAAAAAADyjE4AAAAAAAAAAECe0QkAAAAAAAAAAMgzOgEAAAAAAAAAAHlGJwAAAAAAAAAAIM/oBAAAAAAAAAAA5BmdAAAAAAAAAACAPKMTAAAAAAAAAACQZ3QCAAAAAAAAAADyjE4AAAAAAAAAAECe0QkAAAAAAAAAAMgzOgEAAAAAAAAAAHlGJwAAAAAAAAAAIM/oBAAAAAAAAAAA5BmdAAAAAAAAAACAPKMTAAAAAAAAAACQZ3QCAAAAAAAAAADyjE4AAAAAAAAAAECe0QkAAAAAAAAAAMgzOgEAAAAAAAAAAHlGJwAAAAAAAAAAIM/oBAAAAAAAAAAA5BmdAAAAAAAAAACAPKMTAAAAAAAAAACQZ3QCAAAAAAAAAADyjE4AAAAAAAAAAECe0QkAAAAAAAAAAMgzOgEAAAAAAAAAAHlGJwAAAAAAAAAAIM/oBAAAAAAAAAAA5BmdAAAAAAAAAACAPKMTAAAAAAAAAACQZ3QCAAAAAAAAAADyjE4AAAAAAAAAAECe0QkAAAAAAAAAAMgzOgEAAAAAAAAAAHlGJwAAAAAAAAAAIM/oBAAAAAAAAAAA5BmdAAAAAAAAAACAPKMTAAAAAAAAAACQZ3QCAAAAAAAAAADyjE4AAAAAAAAAAECe0QkAAAAAAAAAAMgzOgEAAAAAAAAAAHlGJwAAAAAAAAAAIM/oBAAAAAAAAAAA5BmdAAAAAAAAAACAPKMTAAAAAAAAAACQZ3QCAAAAAAAAAADyjE4AAAAAAAAAAECe0QkAAAAAAAAAAMgzOgEAAAAAAAAAAHlGJwAAAAAAAAAAIM/oBAAAAAAAAAAA5BmdAAAAAAAAAACAPKMTAAAAAAAAAACQZ3QCAAAAAAAAAADyjE4AAAAAAAAAAECe0QkAAAAAAAAAAMgzOgEAAAAAAAAAAHlGJwAAAAAAAAAAIM/oBAAAAAAAAAAA5BmdAAAAAAAAAACAPKMTAAAAAAAAAACQZ3QCAAAAAAAAAADyjE4AAAAAAAAAAECe0QkAAAAAAAAAAMgzOgEAAAAAAAAAAHlGJwAAAAAAAAAAIM/oBAAAAAAAAAAA5BmdAAAAAAAAAACAPKMTAAAAAAAAAACQZ3QCAAAAAAAAAADyjE4AAAAAAAAAAECe0QkAAAAAAAAAAMgzOgEAAAAAAAAAAHlGJwAAAAAAAAAAIM/oBAAAAAAAAAAA5BmdAAAAAAAAAACAPKMTAAAAAAAAAACQZ3QCAAAAAAAAAADyjE4AAAAAAAAAAECe0QkAAAAAAAAAAMgzOgEAAAAAAAAAAHlGJwAAAAAAAAAAIM/oBAAAAAAAAAAA5BmdAAAAAAAAAACAPKMTAAAAAAAAAACQZ3QCAAAAAAAAAADyjE4AAAAAAAAAAECe0QkAAAAAAAAAAMgzOgEAAAAAAAAAAHlGJwAAAAAAAAAAIM/oBAAAAAAAAAAA5BmdAAAAAAAAAACAPKMTAAAAAAAAAACQZ3QCAAAAAAAAAADyjE4AAAAAAAAAAECe0QkAAAAAAAAAAMgzOgEAAAAAAAAAAHlGJwAAAAAAAAAAIM/oBAAAAAAAAAAA5BmdAAAAAAAAAACAPKMTAAAAAAAAAACQZ3QCAAAAAAAAAADyjE4AAAAAAAAAAECe0QkAAAAAAAAAAMgzOgEAAAAAAAAAAHlGJwAAAAAAAAAAIM/oBAAAAAAAAAAA5BmdAAAAAAAAAACAPKMTAAAAAAAAAACQZ3QCAAAAAAAAAADyjE4AAAAAAAAAAECe0QkAAAAAAAAAAMgzOgEAAAAAAAAAAHlGJwAAAAAAAAAAIM/oBAAAAAAAAAAA5BmdAAAAAAAAAACAPKMTAAAAAAAAAACQZ3QCAAAAAAAAAADyjE4AAAAAAAAAAECe0QkAAAAAAAAAAMgzOgEAAAAAAAAAAHlGJwAAAAAAAAAAIM/oBAAAAAAAAAAA5BmdAAAAAAAAAACAPKMTAAAAAAAAAACQZ3QCAAAAAAAAAADyjE4AAAAAAAAAAECe0QkAAAAAAAAAAMgzOgEAAAAAAAAAAHlGJwAAAAAAAAAAIM/oBAAAAAAAAAAA5BmdAAAAAAAAAACAPKMTAAAAAAAAAACQZ3QCAAAAAAAAAADyjE4AAAAAAAAAAECe0QkAAAAAAAAAAMgzOgEAAAAAAAAAAHlGJwAAAAAAAAAAIM/oBAAAAAAAAAAA5BmdAAAAAAAAAACAPKMTAAAAAAAAAACQZ3QCAAAAAAAAAADyjE4AAAAAAAAAAECe0QkAAAAAAAAAAMgzOgEAAAAAAAAAAHlGJwAAAAAAAAAAIM/oBAAAAAAAAAAA5BmdAAAAAAAAAACAPKMTAAAAAAAAAACQZ3QCAAAAAAAAAADyjE4AAAAAAAAAAECe0QkAAAAAAAAAAMgzOgEAAAAAAAAAAHlGJwAAAAAAAAAAIM/oBAAAAAAAAAAA5BmdAAAAAAAAAACAPKMTAAAAAAAAAACQZ3QCAAAAAAAAAADyjE4AAAAAAAAAAECe0QkAAAAAAAAAAMgzOgEAAAAAAAAAAHlGJwAAAAAAAAAAIM/oBAAAAAAAn507OAEQBqIoSMDmvKZQr5YXawiCPGGmhL/XxwIAAJAndAIAAAAAAAAAAPKETgAAAAAAAAAAQJ7QCQAAAAAAAAAAyBM6AQAAAAAAAAAAeUInAAAAAAAAAAAgT+gEAAAAAAAAAADkCZ0AAAAAAAAAAIA8oRMAAAAAAAAAAJAndAIAAAAAAAAAAPKETgAAAAAAAAAAQJ7QCQAAAAAAAAAAyBM6AQAAAAAAAAAAeUInAAAAAAAAAAAgT+gEAAAAAAAAAADkCZ0AAAAAAAAAAIA8oRMAAAAAAAAAAJAndAIAAAAAAAAAAPKETgAAAAAAAAAAQJ7QCQAAAAAAAAAAyBM6AQAAAAAAAAAAeUInAAAAAAAAAAAgT+gEAAAAAAAAAADkCZ0AAAAAAAAAAIA8oRMAAAAAAAAAAJAndAIAAAAAAAAAAPKETgAAAAAAAAAAQJ7QCQAAAAAAAAAAyBM6AQAAAAAAAAAAeUInAAAAAAAAAAAgT+gEAAAAAAAAAADkCZ0AAAAAAAAAAIA8oRMAAAAAAAAAAJAndAIAAAAAAAAAAPKETgAAAAAAAAAAQJ7QCQAAAAAAAAAAyBM6AQAAAAAAAAAAeUInAAAAAAAAAAAgT+gEAAAAAAAAAADkCZ0AAAAAAAAAAIA8oRMAAAAAAAAAAJAndAIAAAAAAAAAAPKETgAAAAAAAAAAQJ7QCQAAAAAAAAAAyBM6AQAAAAAAAAAAeUInAAAAAAAAAAAgT+gEAAAAAAAAAADkCZ0AAAAAAAAAAIA8oRMAAAAAAAAAAJAndAIAAAAAAAAAAPKETgAAAAAAAAAAQJ7QCQAAAAAAAAAAyBM6AQAAAAAAAAAAeUInAAAAAAAAAAAgT+gEAAAAAAAAAADkCZ0AAAAAAAAAAIA8oRMAAAAAAAAAAJAndAIAAAAAAAAAAPKETgAAAAAAAAAAQJ7QCQAAAAAAAAAAyBM6AQAAAAAAAAAAeUInAAAAAAAAAAAgT+gEAAAAAAAAAADkCZ0AAAAAAAAAAIA8oRMAAAAAAAAAAJAndAIAAAAAAAAAAPKETgAAAAAAAAAAQJ7QCQAAAAAAAAAAyBM6AQAAAAAAAAAAeUInAAAAAAAAAAAgT+gEAAAAAAAAAADkCZ0AAAAAAAAAAIA8oRMAAAAAAAAAAJAndAIAAAAAAAAAAPKETgAAAAAAAAAAQJ7QCQAAAAAAAAAAyBM6AQAAAAAAAAAAeUInAAAAAAAAAAAgT+gEAAAAAAAAAADkCZ0AAAAAAAAAAIA8oRMAAAAAAAAAAJAndAIAAAAAAAAAAPKETgAAAAAAAAAAQJ7QCQAAAAAAAAAAyBM6AQAAAAAAAAAAeUInAAAAAAAAAAAgT+gEAAAAAAAAAADkCZ0AAAAAAAAAAIA8oRMAAAAAAAAAAJAndAIAAAAAAAAAAPKETgAAAAAAAAAAQJ7QCQAAAAAAAAAAyBM6AQAAAAAAAAAAeUInAAAAAAAAAAAgT+gEAAAAAAAAAADkCZ0AAAAAAAAAAIA8oRMAAAAAAAAAAJAndAIAAAAAAAAAAPKETgAAAAAAAAAAQJ7QCQAAAAAAAAAAyBM6AQAAAAAAAAAAeUInAAAAAAAAAAAgT+gEAAAAAAAAAADkCZ0AAAAAAAAAAIA8oRMAAAAAAAAAAJAndAIAAAAAAAAAAPKETgAAAAAAAAAAQJ7QCQAAAAAAAAAAyBM6AQAAAAAAAAAAeUInAAAAAAAAAAAgT+gEAAAAAAAAAADkCZ0AAAAAAAAAAIA8oRMAAAAAAAAAAJAndAIAAAAAAAAAAPKETgAAAAAAAAAAQJ7QCQAAAAAAAAAAyBM6AQAAAAAAAAAAeUInAAAAAAAAAAAgT+gEAAAAAAAAAADkCZ0AAAAAAAAAAIA8oRMAAAAAAAAAAJAndAIAAAAAAAAAAPKETgAAAAAAAAAAQJ7QCQAAAAAAAAAAyBM6AQAAAAAAAAAAeUInAAAAAAAAAAAgT+gEAAAAAAAAAADkCZ0AAAAAAAAAAIA8oRMAAAAAAAAAAJAndAIAAAAAAAAAAPKETgAAAAAAAAAAQJ7QCQAAAAAAAAAAyBM6AQAAAAAAAAAAeUInAAAAAAAAAAAgT+gEAAAAAAAAAADkCZ0AAAAAAAAAAIA8oRMAAAAAAAAAAJAndAIAAAAAAAAAAPKETgAAAAAAAAAAQJ7QCQAAAAAAAAAAyBM6AQAAAAAAAAAAeUInAAAAAAAAAAAgT+gEAAAAAAAAAADkCZ0AAAAAAAAAAIA8oRMAAAAAAAAAAJAndAIAAAAAAAAAAPKETgAAAAAAAAAAQJ7QCQAAAAAAAAAAyBM6AQAAAAAAAAAAeUInAAAAAAAAAAAgT+gEAAAAAAAAAADkCZ0AAAAAAAAAAIA8oRMAAAAAAAAAAJAndAIAAAAAAAAAAPKETgAAAAAAAAAAQJ7QCQAAAAAAAAAAyBM6AQAAAAAAAAAAeUInAAAAAAAAAAAgT+gEAAAAAAAAAADkCZ0AAAAAAAAAAIA8oRMAAAAAAAAAAJAndAIAAAAAAAAAAPKETgAAAAAAAAAAQJ7QCQAAAAAAAAAAyBM6AQAAAAAAAAAAeUInAAAAAAAAAAAgT+gEAAAAAAAAAADkCZ0AAAAAAAAAAIA8oRMAAAAAAAAAAJAndAIAAAAAAAAAAPKETgAAAAAAAAAAQJ7QCQAAAAAAAAAAyBM6AQAAAAAAAAAAeUInAAAAAAAAAAAgT+gEAAAAAAAAAADkCZ0AAAAAAAAAAIA8oRMAAAAAAAAAAJAndAIAAAAAAAAAAPKETgAAAAAAAAAAQJ7QCQAAAAAAAAAAyBM6AQAAAAAAAAAAeUInAAAAAAAAAAAgT+gEAAAAAAAAAADkCZ0AAAAAAAAAAIA8oRMAAAAAAAAAAJAndAIAAAAAAAAAAPKETgAAAAAAAAAAQJ7QCQAAAAAAAAAAyBM6AQAAAAAAAAAAeUInAAAAAAAAAAAgT+gEAAAAAAAAAADkCZ0AAAAAAAAAAIA8oRMAAAAAAAAAAJAndAIAAAAAAAAAAPKETgAAAAAAAAAAQJ7QCQAAAAAAAAAAyBM6AQAAAAAAAAAAeUInAAAAAAAAAAAgT+gEAAAAAAAAAADkCZ0AAAAAAAAAAIA8oRMAAAAAAAAAAJAndAIAAAAAAAAAAPKETgAAAAAAAAAAQJ7QCQAAAAAAAAAAyBM6AQAAAAAAAAAAeUInAAAAAAAAAAAgT+gEAAAAAAAAAADkCZ0AAAAAAAAAAIA8oRMAAAAAAAAAAJAndAIAAAAAAAAAAPKETgAAAAAAAAAAQJ7QCQAAAAAAAAAAyBM6AQAAAAAAAAAAeUInAAAAAAAAAAAgT+gEAAAAAAAAAADkCZ0AAAAAAAAAAIA8oRMAAAAAAAAAAJAndAIAAAAAAAAAAPKETgAAAAAAAAAAQJ7QCQAAAAAAAAAAyBM6AQAAAAAAAAAAeUInAAAAAAAAAAAgT+gEAAAAAAAAAADkCZ0AAAAAAAAAAIA8oRMAAAAAAAAAAJAndAIAAAAAAAAAAPKETgAAAAAAAAAAQJ7QCQAAAAAAAAAAyBM6AQAAAAAAAAAAeUInAAAAAAAAAAAgT+gEAAAAAAAAAADkCZ0AAAAAAAAAAIA8oRMAAAAAAAAAAJAndAIAAAAAAAAAAPKETgAAAAAAAAAAQJ7QCQAAAAAAAAAAyBM6AQAAAAAAAAAAeUInAAAAAAAAAAAgT+gEAAAAAAAAAADkCZ0AAAAAAAAAAIA8oRMAAAAAAAAAAJAndAIAAAAAAAAAAPKETgAAAAAAAAAAQJ7QCQAAAAAAAAAAyBM6AQAAAAAAAAAAeUInAAAAAAAAAAAgT+gEAAAAAAAAAADkCZ0AAAAAAAAAAIA8oRMAAAAAAAAAAJAndAIAAAAAAAAAAPKETgAAAAAAAAAAQJ7QCQAAAAAAAAAAyBM6AQAAAAAAAAAAeUInAAAAAAAAAAAgT+gEAAAAAAAAAADkCZ0AAAAAAAAAAIA8oRMAAAAAAAAAAJAndAIAAAAAAAAAAPKETt9iersAACAASURBVAAAAAAAAAAAQJ7QCQAAAAAAAAAAyBM6AQAAAAAAAAAAeUInAAAAAAAAAAAgT+gEAAAAAAAAAADkCZ0AAAAAAAAAAIA8oRMAAAAAAAAAAJAndAIAAAAAAAAAAPKETgAAAAAAAAAAQJ7QCQAAAAAAAAAAyBM6AQAAAAAAAAAAeUInAAAAAAAAAAAgT+gEAAAAAAAAAADkCZ0AAAAAAAAAAIA8oRMAAAAAAAAAAJAndAIAAAAAAAAAAPKETgAAAAAAAAAAQJ7QCQAAAAAAAAAAyBM6AQAAAAAAAAAAeUInAAAAAAAAAAAgT+gEAAAAAAAAAADkCZ0AAAAAAAAAAIA8oRMAAAAAAAAAAJAndAIAAAAAAAAAAPKETgAAAAAAAAAAQJ7QCQAAAAAAAAAAyBM6AQAAAAAAAAAAeUInAAAAAAAAAAAgT+gEAAAAAAAAAADkCZ0AAAAAAAAAAIA8oRMAAAAAAAAAAJAndAIAAAAAAAAAAPKETgAAAAAAAAAAQJ7QCQAAAAAAAAAAyBM6AQAAAAAAAAAAeUInAAAAAAAAAAAgT+gEAAAAAAAAAADkCZ0AAAAAAAAAAIA8oRMAAAAAAAAAAJAndAIAAAAAAAAAAPKETgAAAAAAAAAAQJ7QCQAAAAAAAAAAyBM6AQAAAAAAAAAAeUInAAAAAAAAAAAgT+gEAAAAAAAAAADkCZ0AAAAAAAAAAIA8oRMAAAAAAAAAAJAndAIAAAAAAAAAAPKETgAAAAAAAAAAQJ7QCQAAAAAAAAAAyBM6AQAAAAAAAAAAeUInAAAAAAAAAAAgT+gEAAAAAAAAAADkCZ0AAAAAAAAAAIA8oRMAAAAAAAAAAJAndAIAAAAAAAAAAPKETgAAAAAAAAAAQJ7QCQAAAAAAAAAAyBM6AQAAAAAAAAAAeUInAAAAAAAAAAAgT+gEAAAAAAAAAADkCZ0AAAAAAAAAAIA8oRMAAAAAAAAAAJAndAIAAAAAAAAAAPKETgAAAAAAAAAAQJ7QCQAAAAAAAAAAyBM6AQAAAAAAAAAAeUInAAAAAAAAAAAgT+gEAAAAAAAAAADkCZ0AAAAAAAAAAIA8oRMAAAAAAAAAAJAndAIAAAAAAAAAAPKETgAAAAAAAAAAQJ7QCQAAAAAAAAAAyBM6AQAAAAAAAAAAeUInAAAAAAAAAAAgT+gEAAAAAAAAAADkCZ0AAAAAAAAAAIA8oRMAAAAAAAAAAJAndAIAAAAAAAAAAPKETgAAAAAAAAAAQJ7QCQAAAAAAAAAAyBM6AQAAAAAAAAAAeUInAAAAAAAAAAAgT+gEAAAAAAAAAADkCZ0AAAAAAAAAAIA8oRMAAAAAAAAAAJAndAIAAAAAAAAAAPKETgAAAAAAAAAAQJ7QCQAAAAAAAAAAyBM6AQAAAAAAAAAAeUInAAAAAAAAAAAgT+gEAAAAAAAAAADkCZ0AAAAAAAAAAIA8oRMAAAAAAAAAAJAndAIAAAAAAAAAAPKETgAAAAAAAAAAQJ7QCQAAAAAAAAAAyBM6AQAAAAAAAAAAeUInAAAAAAAAAAAgT+gEAAAAAAAAAADkCZ0AAAAAAAAAAIA8oRMAAAAAAAAAAJAndAIAAAAAAAAAAPKETgAAAAAAAAAAQJ7QCQAAAAAAAAAAyBM6AQAAAAAAAAAAeUInAAAAAAAAAAAgT+gEAAAAAAAAAADkCZ0AAAAAAAAAAIA8oRMAAAAAAAAAAJAndAIAAAAAAAAAAPKETgAAAAAAAAAAQJ7QCQAAAAAAAAAAyBM6AQAAAAAAAAAAeUInAAAAAAAAAAAgT+gEAAAAAAAAAADkCZ0AAAAAAAAAAIA8oRMAAAAAAAAAAJAndAIAAAAAAAAAAPKETgAAAAAAAAAAQJ7QCQAAAAAAAAAAyBM6AQAAAAAAAAAAeUInAAAAAAAAAAAgT+gEAAAAAAAAAADkCZ0AAAAAAAAAAIA8oRMAAAAAAAAAAJAndAIAAAAAAAAAAPKETgAAAAAAAAAAQJ7QCQAAAAAAAAAAyDucCPas+7IYAAAAAAAAAFvGOQ0GL/noBAAAAAAAAAAA5AmdAAAAAAAAAACAPKETAAAAAAAAAACQJ3QCAAAAAAAAAADyhE4AAAAAAAAAAECe0AkAAAAAAAAAAMgTOgEAAAAAAAAAAHlCJwAAAAAAAAAAIE/oBAAAAAAAAAAA5AmdAAAAAAAAAACAPKETAAAAAAAAAACQJ3QCAAAAAAAAAADyhE4AAAAAAAAAAECe0AkAAAAAAAAAAMgTOgEAAAAAAAAAAHlCJwAAAAAAAAAAIE/oBAAAAAAAAAAA5AmdAAAAAAAAAACAPKETAAAAAAAAAACQJ3QCAAAAAAAAAADyhE4AAAAAAAAAAECe0AkAAAAAAAAAAMgTOgEAAAAAAAAAAHmHE0HLOKeLAAAAAAAAAHxo3Ze54Qd8dAIAAAAAAAAAAPKETgAAAAAAAAAAQJ7QCQAAAAAAAAAAyBM6AQAAAAAAAAAAeUInAAAAAAAAAAAgT+gEAAAAAAAAAADkCZ0AAAAAAAAAAIA8oRMAAAAAAAAAAJAndAIAAAAAAAAAAPKETgAAAAAAAAAAQJ7QCQAAAAAAAAAAyBM6AQAAAAAAAAAAeUInAAAAAAAAAAAgT+gEAAAAAAAAAADkCZ0AAAAAAAAAAIA8oRMAAAAAAAAAAJAndAIAAAAAAAAAAPKETgAAAAAAAAAAQJ7QCQAAAAAAAAAAyBM6AQAAAAAAAAAAeUInAAAAAAAAAAAgT+gEAAAAAAAAAADkCZ0AAAAAAAAAAIA8oRMAAAAAAAAAAJAndAIAAAAAAAAAAPKETgAAAAAAAAAAQJ7QCQAAAAAAAAAAyBM6AQAAAAAAAAAAeUInAAAAAAAAAAAgT+gEAAAAAAAAAAA87N1Jbiy7mYBR+eFuzlMv1NNaXhn55LS6TGU0DPJvzgE8qEEB9pVERpBfkOEJnQAAAAAAAAAAgPCETgAAAAAAAAAAQHhCJwAAAAAAAAAAIDyhEwAAAAAAAAAAEJ7QCQAAAAAAAAAACE/oBAAAAAAAAAAAhCd0AgAAAAAAAAAAwhM6AQAAAAAAAAAA4QmdAAAAAAAAAACA8IROAAAAAAAAAABAeEInAAAAAAAAAAAgPKETAAAAAAAAAAAQntAJAAAAAAAAAAAIT+gEAAAAAAAAAACEJ3QCAAAAAAAAAADCEzoBAAAAAAAAAADhCZ0AAAAAAAAAAIDwhE4AAAAAAAAAAEB4QicAAAAAAAAAACA8oRMAAAAAAAAAABCe0AkAAAAAAAAAAAhP6AQAAAAAAAAAAIQndAIAAAAAAAAAAMITOgEAAAAAAAAAAOEJnQAAAAAAAAAAgPCETgAAAAAAAAAAQHhCJwAAAAAAAAAAIDyhEwAAAAAAAAAAEJ7QCQAAAAAAAAAACE/oBAAAAAAAAAAAhCd0AgAAAAAAAAAAwhM6AQAAAAAAAAAA4QmdAAAAAAAAAACA8IROAAAAAAAAAABAeEInAAAAAAAAAAAgPKETAAAAAAAAAAAQntAJAAAAAAAAAAAIT+gEAAAAAAAAAACEJ3QCAAAAAAAAAADCEzoBAAAAAAAAAADhCZ0AAAAAAAAAAIDwhE4AAAAAAAAAAEB4QicAAAAAAAAAACA8oRMAAAAAAAAAABCe0AkAAAAAAAAAAAhP6AQAAAAAAAAAAIQndAIAAAAAAAAAAMITOgEAAAAAAAAAAOEJnQAAAAAAAAAAgPCETgAAAAAAAAAAQHhCJwAAAAAAAAAAIDyhEwAAAAAAAAAAEJ7QCQAAAAAAAAAACE/oBAAAAAAAAAAAhCd0AgAAAAAAAAAAwhM6AQAAAAAAAAAA4QmdAAAAAAAAAACA8IROAAAAAAAAAABAeEInAAAAAAAAAAAgPKETAAAAAAAAAAAQntAJAAAAAAAAAAAIT+gEAAAAAAAAAACEJ3QCAAAAAAAAAADCEzoBAAAAAAAAAADhCZ0AAAAAAAAAAIDwhE4AAAAAAAAAAEB4QicAAAAAAAAAACA8oRMAAAAAAAAAABCe0AkAAAAAAAAAAAhP6AQAAAAAAAAAAIQndAIAAAAAAAAAAMITOgEAAAAAAAAAAOEJnQAAAAAAAAAAgPCETgAAAAAAAAAAQHhCJwAAAAAAAAAAIDyhEwAAAAAAAAAAEJ7QCQAAAAAAAAAACE/oBAAAAAAAAAAAhCd0AgAAAAAAAAAAwhM6AQAAAAAAAAAA4QmdAAAAAAAAAACA8IROAAAAAAAAAABAeEInAAAAAAAAAAAgPKETAAAAAAAAAAAQntAJAAAAAAAAAAAIT+gEAAAAAAAAAACEJ3QCAAAAAAAAAADCEzoBAAAAAAAAAADhCZ0AAAAAAAAAAIDwhE4AAAAAAAAAAEB4QicAAAAAAAAAACA8oRMAAAAAAAAAABCe0AkAAAAAAAAAAAhP6AQAAAAAAAAAAIQndAIAAAAAAAAAAMITOgEAAAAAAAAAAOEJnQAAAAAAAAAAgPCETgAAAAAAAAAAQHhCJwAAAAAAAAAAIDyhEwAAAAAAAAAAEJ7QCQAAAAAAAAAACE/oBAAAAAAAAAAAhCd0AgAAAAAAAAAAwhM6AQAAAAAAAAAA4f3xIwJghP//v3/7d+Shf/zzX/5hADgtyrOGeQ04yjsTo5iLgNnMYcAenlUAuJrQCQC41MjFMC/JAH1E3Ux59N/L/ATATN6xAAAA6EzoBACksXVB32I9QE5ZvxT//N/bHARAJlvmXnMbAAAAkQidAIByXi3WW6gHiKXSVRj3/y3mGgCq8H4FAABAJEInAKCdZwv1FugB5qoUOH13+99mXgGgA+9XAAAAzCR0AgD4Lwv0APNUjpzunO4EQGeP5npzIgAAAGcJnQAAXrBADzBWh8jpM6c7AcA771YAAACcJXQCADjg+wK9xXmAbbpFTndiJwB4zLsVAAAAewidAAAGsDgP8FrXyOlO7AQAr3m3AgAA4DdCJwCAC1icB/iqe+R0J3YCgH28WwEAAPCZ0AkAYILPi/MW5oFuRE5fiZ0A4DjvVgAAAL0JnQAAJrMwD3QicnpM7AQA53m3AgAA6EfoBACwkIV5oDKREwAwi3crAACAHoROAABBWJgH6MWpTgBwDe9WAAAAdf3lZwsAEM9tYd5JKEBmxjAAIALvVgAAALUInQAAArsvyluYB6jJ+A4Ac3ivAgAAqMHVdQAASdwX5V29AERnExEAiMq1dgAAALk50QkAIBlfIgPUYkwHgDW8WwEAAOQjdAIASMqiPBCRcQkAyMa7FQAAQB5CJwCA5CzKA+RnHAeA9bxbAQAAxCd0AgAowqI8AADAed6tAAAA4hI6AQAUY1EeWMXYAwBU4t0KAAAgHqETAEBRFuUBcjFmA0BM5mgAAIA4hE4AAMVZlAcAADjHhyQAAAAxCJ0AABqwKA9czRgDAHTg3QoAAGAtoRMAQCMW5AFiM04DQA7mbAAAgDWETgAAzfgCGRjNmAIAdOTdCgAAYD6hEwBAUxbkAQAAzvNuBQAAMI/QCQCgMV8gA8RjXAaAfLxbAQAAzCF0AgDAgjxwmPEDAOCDZyMAAIBrCZ0AAPibBXmAOIzJAJCXeRwAAOA6QicAAP7HgjwAAMB53q0AAACuIXQCAOCL24K8RXlgC2MFAMBz3q0AAADGEzoBAPCQBXmAtYzDAFCDOR0AAGAcoRMAAE9ZkAeeMT4AAGzn2QkAAGAMoRMAAL+yIA8AAHCedysAAIDzhE4AALxkQR5gDeMvANRibgcAADhH6AQAwCYW5IE74wEAwHGepQAAAI4TOgEAsJkFeYD5jL0AUI/5HQAA4BihEwAAu1iQBwAAOM+7FQAAwH5CJwAAdrMgD335+wcAGMezFQAAwD5CJwAAAAjOJigA1GWeBwAA2E7oBADAIRbjAQAAxvB+BQAAsM0f/04AABx1W4z/xz//5d8Pmsi8AXcfq2wiAlzLs+Ea5rcavF8BAAC8JnQCgA0sNI5jAb4ei/FAdFXGKOMtAM9smR+8i+Vgviciv5MAAEQidAIAptq7OGYxPgeL8VCf8RgAcvvted08DwAAQBZCJwAgNIvxAAAA13r03uV9ax0fkgAAADwndAIA0nq28GtBfg2L8UBE38el2/+deZ4w1gIwi/hpLXM+AADAY0InAKAcC/LrWIyHmoyhAMDbg3ctzwjX8n4FAADwk9AJAGjBgjwAVdj0BCCKz/ORdywAAABm+Mu/MgDQ0W1B/v4fxrLBAURn7AeA8bxjXcP7FQAAwFdCJwCgPQvy41mMhzoy/z0b1wFgDe9YY3m/AgAA+ODqOgCAT1y9AEAGrq8DIAvvWAAAAIzkRCcAgCd8hXyOTQzIz98xADCS96vjPJcBAAC8EzoBAGxgQR4gl1djtjEdANbxfnWM2AkAAEDoBACwiwX5fSzEA1zHGAtAdt6vAAAA2EvoBABwgAV5oDoRDQAwi/er7TyjAQAA3QmdAABOsCD/moV4YLat43KF8dsYC0Al3q8AAAB4RegEADCABXkAAIAxvF/9TugMAAB0JnQCABjIYvxjFuIhF3+zAEAE3q8AAAD4TugEADCYr48BmEmYBkBl3q0eM/8DAABdCZ0AAC5iQf4rC/HADHvHXmM1AMTnYxIAAADuhE4AABeyIA9kI0oEAKLybvWV5zYAAKAjoRMAwAQW5AG4ko1OALrwbgUAANCb0AkAYBIL8jbiIbrsf6NHx1njMwDkYu7+4B0LAADoRugEADCRBXkAAIDzXBMOAADQk9AJAGAyi/EAXMGJDgB05P3KMwAAANCL0AkAYIHOi/EW4SGmrtfWjfr/BwDWMY8DAAD0IXQCAFjEYjwAo4lJAQAAAIDKhE4AAAuJnQAAAM7r/m4ldgYAALoQOgEAMJ1FeIil+7V1AEANngkAAADqEzoBACxmMR4ghirjsZgUgM46v195BgAAADoQOgEABCB2AgAAGMP7FQAAQF1CJwAAgMZ8+Q8AAAAAQBZCJwCAILp9dSyuAEYYPXa6vg4Aauh6qpNnAAAAoDqhEwBAIK5YAGayEQYAVOb9CgAAoB6hEwAAAAAAAAAAEJ7QCQAgGF8dA2xz1Xjp+joAqMP7FQAAQC1CJwAAgIZEMABAF91iJ895AABAZUInAICAuizEW4AHuJZxFgAAAACoROgEAABAOlcHoa65AYBazO0AAAA1CJ0AAACaccoPAEBtnvcAAICqhE4AAEH54hiAEWx0AsA771gAAAD5CZ0AAAAaqRC92KQEAAAAAOhJ6AQAAAAPCKoAAAAAAGIROgEABNZhk92VSgDXM9YCwDshMwAAQG5CJwAAgCbELgAAfXj2AwAAKhI6AQAAkMbsUxgqnfpgsxMA3jnVCQAAIC+hEwAAAAAAAAAAEJ7QCQAgOF8bAyM4zQcAAAAAgOyETgAAAKSwKvx0fR0A1OODEgAAgJyETgAAAAAAAAAAQHhCJwAAgOKc4gMA0JPnQAAAoBqhEwAAAOGtvl7G9XUAAAAAAOsJnQAAAAoTtQAAPFYpZAYAAOhC6AQAkIAFeAAAAAAAALoTOgEAABBalNjT9XUAAAAAAGsJnQAAAIoSswAAAAAAUInQCQAAABoSwgEAAAAA2QidAAAACCvadXGVrq8DAAAAAMhG6AQAAFCQ03oAAF7rEDF7LgQAACoROgEAAEBTNj4BAAAAgEyETgAAAITkmjgAAAAAAD4TOgEAABTjlJ5rCbAAAAAAANYQOgEAAEBjwjgAAAAAIAuhEwAAQCGiFQAAAAAAqhI6AQAAEE706+GqXV8nkAMAAAAAMhA6AQAAAAAAAAAA4QmdAAAAinAqDwAAAAAAlQmdAABYqtr1T8B5WcYF19cBAAAAAMwldAIASMDmMwAAAAAAAN0JnQAAAAoQRAIAAAAAUJ3QCQAAgDCyXQfn+joAAAAAgHmETgAAAMmJUwAAAAAA6EDoBAAAAAAAAAAAhCd0AgAAIISs18C5vg4AAAAAYA6hEwAAy1SLA2AFUQoAAAAAAF0InQAAghMxADCbuQcAAAAAiEjoBAAAwHLZT3hzQh0AAAAAwPWETgAAAEk5dQcAAAAAgE6ETgAALOH0E4DYhHQAAAAAQDRCJwCAwGwyAx1UCR8FnAAAAAAA1xI6AQAAJCSEBAAAAACgG6ETAAAA8JCgDgAAAACIROgEAMB0rneCcyrFJ9XGA+MbAAAAAMB1hE4AAEE5RQMAAICzhNgAAEAlQicAAADgKeEtAJWZ5wAAAHIROgEABFR5sd3XxHCOa+viM84BAAAAAFxD6AQAAAD8ymkXAAAAAEAEQicAAAAAAAAAACA8oRMAQDCurQOecW1dHsY7AAAAAIDxhE4AAADAS66vAwAAAABWEzoBAATiNCfgGZEJAMBYnq8AAADyEToBAAAwVZfwUeAJAAAAADCW0AkAIAinOQEQnZMvACAX72IAAEA1QicAgABsHAO/MUYAAAAAAIDQCQCAi/mCGPis25hQ8X+v8A6ACsxnAAAAOQmdAAAWs8AOAAAAAAAArwmdAAAWqh45Oc0JzhNDAgAAAADAO6ETAAAAXMj1dQAQS5d5zIcnAABARUInAIBFnOYEdGNcAAAAAADgDKETAMACTsIAtjBWAAAAAADAB6ETAMBkHcIFp7YAfOX6OgCIwfwFAACQm9AJAGAii+rAVtXGCwEkAAAAAABnCZ0AACbpEjmJGQAAgIg6fXjivQwAAKhK6AQAMIHICQDX1wEAAAAAnCN0AgC4mE1gYC/X1gEAjOW9DAAAoAahEwDAhVyNAEB1No4BAAAAgFmETgAAFxE5AWC8BID1ukW5njcAAIDK/vjpAgCMZREdOMO1dQAAAAAA8JgTnQAABnJ9DwAdmf8AiMocBQAAUIvQCQBggNvieccFdCe1AOxn7AQAruI5AwAAqE7oBABwUtcvhC2gw3iurQMAGMdpTgAAAPUInQAADup6itObeAGAB2wmAxCJeQkAAKAmoRMAwE6dA6c3kRNcxmZcL8ZSAGA0zxcAAEAHQicAgI26B05vFs6BHYwXPXWfJwGIwXwEAABQ1x8/WwCA31kkfydaAAAAovP+BgAAUJsTnQAAnnCC0weRE1zLWNOTsRUAGMVzBQAA0IUTnQAAPhEb/GTBHNjLuNHbbS71OwDACt7nAAAA6hM6AQBYEH/KRjUAAJBB53c6720AAEAnQicAoC1x0+8slsMcxqLebmOt3wEAOMdcCgAA0IfQCQBow+L3diIn4CjjB2+urwNgou7veeZbAACgG6ETAFBW9wXvoyyUwzzGKQCA4zxLAQAA9CN0AgDKsMh9nsgJOMMYcozr6wBgP3MnAABAT0InACAli9rjCRQAGMn1dQBcxfvgO/MsAADQkdAJAAjNAvb1LI7DGsY3AID9PEMBAAD0JnQCAJaxQL2eyAkYxXhyTtXr65zqBMBI3iE/mF8BAICuhE4AwGEWmXOzMA4AAGTh/RMAAIA3oRMAbGNBlUoETrCeeQUAYBvPTT95p2M2f4eQhzkCgA7+8lMGAOjDYgdwBWPLGFX/HW2MAXCUOeQnz10AAEB3TnQCAGjAYjgAAJCJyAkAAIBHhE4AAMWJnCAWm3YAAM95VnrOux0AAICr6wAAyrotglsIB65mnBnL9XUAdGa+AAAA4BUnOgEAFCM6gLhs3gEA/OQZ6TXveQAAAO+ETgAARVj4BgAAMhE4beNdDwAA4IOr6wAAknNFHbCKsecarq8DoLrbnGBeAAAA4AgnOgEAJCUwgFxs5gEA3Xke2s97HwAAwFdCJwCAZCx0A5DVbYPbPAbQj8DpGHMmAADAT0InAIAkLHIDkRiTrnX797UpDEB25jIAAABGEzoBAAQmJIAabPIBAJ149jnPuyAAAMBjQicAgGAsaANQmevrAGoSN41jngQAAHhO6AQAEITFbKip4qaf8WoO19cBEJ15CgAAgNmETgAAC4kFAACATMRN1/KOCAAA8DuhEwDARBatAdij6qlOrq8DyEPYNI+5EQAA4DWhEwDAhSxUQ2+urQMAshE2reEZCwAAYBuhEwDABSxSA8DvnOoEEIOwaT3zIQAAwHZCJwAAAAis6vV1AMxlLolJ5AQAALCP0AkA4ALPNhEsYkMfrq0DAGYTM+Xi2QoAAGA/oRMAwEQCKAD44Po6gNfESwAAAPBB6AQAEMD3zQubvgB85vo6IAtjFWzjnQ8AAOAYoRMAQECPNogshEMerq0DAMBzFQAAwHhCJwCAJJz6BEBFrq8DoBNzHgAAwDl/+fcDAMjptjF8/w8Qh79JrmJjFAByM5cDAACc50QnAIACPocVFs+B0YwrAADneJ4CAAAYQ+gEAFCM6AmAbFxfB0BV5jcAAICxXF0HAFCY6+1gLn9rXM1mKQDkYd4GAAAYT+gEANCE6Ak4wgYds5ifAKjEMxQAAMA1hE4AAA0JngAAAK4hcgIAALiO0AkAoDGnPME4/o6YxeYpAMRlngYAALiW0AkAgL8JnoDvbNQxm3kIgKxuz02enQAAAK4ndAIA4AvBEwAAwHYCJwAAgHmETgAAPCR4gu38rTCbDVUAiMGcDAAAMJfQCQCAXwmeoCebdqxizgEgA1fVAQAArCF0AgBgE8ETPObvAgCgF4ETAADAOkInAAB2ETxBfTbvcvBzAoD5zL8AAABrCZ0AADhE8ATAVcwvAETjqjoAAIAYhE4AAJxiM5rO/P4DANQmcAIAAIhF6AQAwGlOd4I6bOTlUvnnZV4BYDXPRQAAAPEInQAAGMamNAAAkJ1TnAAAAOL642cDAMBI99jJxgDVCfsAAGrxDgMAABCfE50AALiECATysbmXk+vrAOA8z0EAAAA5ONEJADaw4Dmejcsebj9nfz9UZAwDAKjB+woAAEAuQicAYImzi8kigzxcZQcAAETj/QS4Mx4AAOQidAIAUtqyCCWGisXpThCbv8/cbj+/qvOe+QOAkcwpAAAAzQ0lmwAAIABJREFUuQmdAICyni1gC6DWsVlNBcYQAIB8vIcAAADUIHQCANoRQK0ldgJgL3MHAEeYOwAAAOoROgEA/NejRXDx0zVsWEMs/h5rqHx9HQDs4dkGAACgLqETAMAvvi+Q20Ae5/5vaROCTIwBAABxebcAAACoT+gEALCD8Gk8pzsBsIX5AoBHzA0AAAC9CJ0AAE74vKguejrO5jWs42+vFtfXAdCB5xcAAIC+hE4AAIOIns4ROxGdv2sAgHW8KwAAAPAmdAIAuIbo6RixEwC/MU8A9GLMBwAA4Lu//IsAAFzrtjhvgX47YRgRVf29NDbV5OcKQGb39yfzGQAAAI840QkAYBKnPAEAAHwlaAIAAGAPJzoBACzgC+XfCcEAeMYcAZCfU5sAAAA4yolOAAAL3Rf2bdr+dPs3sfFBBK6tI6Pbz9fcAkAUnjsAAAAYxYlOAAAB+Jr5MZv0ADxifgDIxbgNAADAKEInAIBABE8/2RQBAAAAAADgTegEABCT2AlicG0dmfk5AxCJDxgAAAAYQegEABCU050+2BQB4DtzA0A+xm4AAADOEjoBAAQndnpnU4TZ/M4BAAAAAEAsf/w8AADiu8dO3cOL2/9+4Rec42+ol9vPu/vcAcxlntmn4xjtmR4AAIAznOgEAJCIDQEA+CDiAsjJ+A0AAMBRQicAgGRusVPn4MmmCDP4PQMAZvAhAwAAAOwjdAIASMqmCLCXcaOn6j93YSJATsZvAAAAjhA6AQAk1jVasCkCAEAVQmQAAADYTugEAJCc2An8bgEAuXmmBwAAgG2ETgAABfgKHHjFONGb6+sAiMoYDgAAwB5CJwCAIjpGDDZFAACoQpQMAAAArwmdAAAKsTkC51SN54wNAEBkPmAAAABgK6ETAEAx3YIGmyIA27i+DiC+znGycRwAAIAthE4AAAU5vQX2s7kGAETgWR4AAACeEzoBABTVaYNEoALP2SwFALLwXA8AAMArQicAAABowvV1ADm4wg4AAAAeEzoBABTmVCfw+wMA5ORURgAAAPhJ6AQAUJwNEujL3z8dCRcB8jOWAwAA8IzQCQAAABoRwAHkYcwGAACAr4ROAAANdNkg8eU3R/i9AQCIxzMaAAAAjwidAACa8DU49OJvns5sjgOVdJ7TjecAAAB8J3QCAACAZoRwALkYtwEAAOCd0AkAoJEOGyS++mYPvy8AALF5XgMAAOAzoRMAAEAxTn0AG+NAPa6wAwAAAKETAEA7Agh4Z8OM7swHAPkYuwEAAOhO6AQAQDkCFgAAqMUzPgAAAG9CJwCAnnwJDnX5+4YPNsWBisz1AAAAdCZ0AgAA2hE/wDub5QBk4hkOAAAAoRMAACXZBAHgzXwAFNU5VDWuAwAA9CZ0AgBoyikeUI+/awDow7wPAABAR0InAACgFacAwFc2ygHIxvMcAABAX0InAAAAoDQb4kBVrrADAACgG6ETAEBj1TdGbH7wXeXfCafyAEBPngEAAADoROgEAAAAzdkkByAjHzYAAAD0I3QCAAAAyrMZDlTmCjsAAAC6EDoBAAAtuLYOAAAAAAByEzoBADQnkADgrcl84NQPoDKnOgEAANCB0AkAAAAAoAAfMQAAAFCd0AkAgNJ83c2ba+sAAMrz3A8AANCD0AkAAAD4m+vrAPJzhR0AAACVCZ0AAAAAAApx4iMAAABVCZ0AALARQmmurQMA6MOpTgAAALUJnQAAAID/cX0dQA2usAMAAKAioRMAAFCWTS4AAAAAAKhD6AQAAJCQa+sAgFec6gQAAEA1QicAAADgC9fXAdQhdgIAAKASoRMAAFBS5Y0tpzkBAAAAANCR0AkAAABoyUkfQBdOdQIAAKAKoRMAAADwg5PDAGoxrgMAAFCB0AkAgPJ8xd2Pa+sAALjzPgAAAFCH0AkAAAB4qENYZ/Mb6MQVdgAAAGQndAIAAEqxiQUAAAAAADUJnQAAAJJwbR0AcJZTnQAAAMhM6AQAAAA85fo6gHrETgAAAGQldAIAAMqwcQUAAAAAAHUJnQAAABJwbR0AMJJTnQAAAMhI6AQAAAD8yvV1AFRj3AcAAMhJ6AQAAJRgswoAYB8nRgIAAJCN0AkAACA4m5Awh2AS6MgVdgAAAGQidAIAAABeEtwBAAAAAKsJnQAAKM/mfH2+xgcAOM6pTgAAAGQhdAIAAAhMqAdz2fAGuhI7AQAAkIHQCQAASM3GFMwjvAMAAAAAVhI6AQAAAADgVCcAAADCEzoBAGBRH4Jyeg6sYV4E6Mn4DwAAEJ/QCQAASMtmFMwnwAOozTgPAABAZEInAAAAgG+ElEBnrrADAAAgKqETAABAQE5TAAAAAACAr4ROAABASr62h3WEeAD1OdUJAACAiIROAADNWcQHgMfMkUB3YicAAACiEToBAAAE47QcAAAAAAD4SegEAACk4wt7WE+QB9CDU50AAACIROgEAEBpNuIBOMMmN0Bv5gEAAIBYhE4AAI1ZtCej6r+34jwAIBrPJwAAAEQhdAIAAAAOsfEN0Icr7AAAAIhA6AQAAADwCxvcAJgLAAAAYhA6AQAAabi2DgBgHc8qAAAArCZ0AgBoyhfJAIzQZdPbvAnwzhV2AAAArCR0AgCgLF+cAwAAAAAA1CF0AgBoyJfIZOTaOgCAGJzqBAAAwCpCJwAAAOAU19cB0In5AAAAYB2hEwAAEJ7TnAAAYvH8AgAAwApCJwCAZrp8fWzjBQAAruUKOwAAAGYTOgEAAACnub4OgG7MCQAAAPMJnQAAGrEQT0aurQMAiMuzDAAAADMJnQAAAAB2EA4DfOUKOwAAAGYROgEANNFpAd5X5QBrGH8B6EjsBAAAMI/QCQAACMu1dQAAOXiuAQAAYAahEwBAA74wBoCxzK0AfGZeAAAAmEPoBABQnAV3AGZyogdAX+YAAAAAriZ0AgCgFJsrdbi2DgAgn87POD4yAQAAuJ7QCQCgMAvtAHAd8ywA35kbAAAAriV0AgAoygI7mfn9hdycWAbQm3kAAACAqwidAAAow4YKWfhdBQCoS7QPAABwHaETAEBBFtYBYA5zLsBj3cNu8wMAAMA1hE4AAMV0XVD/D3t3kyS3jUVhtKyoxdnD9kJ72stzB11RoRSVlcUfgLzAOyfCw7ZbJEhm5vsEVh+kzMRQCObgvgyAZwEAAACtCZ0AACYiEIF8Bn4wH89fAJ7xfAAAAGhP6AQAMAk/ogMAAGmqR96+pwEAALQldAIAYHjVhyczMQiCubg/A/DmeQAAAEBDQicAgAmIQ2AMhnwwL89iAL7iGQEAANCO0AkAYHDVfzQXjgAAQD6f2wEAAGhB6AQAMLDqkRNzsZ5hTgbbAOCzLgAAQCtCJwCAAS0/kvuh3PCcsVivMD/PZoDXqn8e8pwAAAA4T+gEADAYP44zI+saAKCG6rETAAAA5widAAAGIgb5yYAEYBzu2QDwwXc6AACAc4ROAACD8IM4jEvkAXV4XgN8r/pnI88KAACA44ROAADhlh/B/RD+q+qDkdlY3wAA9fhMDwAAwBFCJwCAYAIQAGZRaaDt+Q3AdzwrAAAAjhE6AQCE8sP3c/7mN6OxZgEAnvM5CQAAgL2ETgAAYbyqjkqsdQAAqvJZGAAAYD+hEwBACIHT9/yNb4CxeX0dAGvVP+N7XgAAAOwjdAIACODHbSqqsO6rD+4AALbwmQkAAICthE4AADeyi9N2hh8AAMCMfCcEAADYTugEAHADgdM+IieAeXh9HQDPVP/M75kBAACwjdAJAOBCAif44LV1AAD4/AQAAMBeQicAgAsInI4z7ABgZJ7/AGzlmQEAAPA9oRMAQCefcZMfq48TOQHMyf0dgK9Uf0b4/ggAAPDau+MDANCWH6bbqD7gmJnX1gEAAAAAAEfY0QkAoAG7NwEAX/H5AGCf6tG45wYAAMDXhE4AAAeJm/qpPthgbNYvbONaAeAVzwkAAACe8eo6AIAdRE39GWjMzTUEAADfWz43+24EAADwOzs6AQC88Lhrk0CjPz/kAzArnyMA9qv+/cCzAwAA4Hd2dAIAeOCHZOinwvVVfRgHey3XjGcvAK94VgAAAPBI6AQAlOXH8iwCEQAAgF95hR0AAMCvhE4AQAmipmx+uAegAsNqgGOq7+rk+QEAAPCT0AkAmIaYaUx+sK/Ba+uAV9eOZzgAAAAAsIXQCQAYggHonIQhAFRjVw6AY6qHsZ4fAAAAH4ROAMBlxEo88iM9AACwh9hJ7AQ9+L0KruM5BkALQicA2MAPHtCWHzVq8do6YMs15PMWAAAAAPCdH44QAABXEoQAUJ2oC+C46t8nPEMAAIDqhE4AAFym+lCiIoMYAAAAAACgFaETAACXEDkxK2sb2nAtAbBV9WeGv0wAAABUJnQCAKC76oMIAFgzpAY4p/p3DM8RAACgKqETAABdVR9AVGb4AgAAAAAAtCR0AgCgG5ETs7PGoa1q15QgFOCc6p/FPEcAAICKhE4AADS3DByqDx0AAID+qn/vEDsBAADVCJ0AAGiq+qCBDwYuAAAAAABAa0InAACaETlRifUOfXh9HQB7Vf9c5lkCAABUInQCAKCJ6sMFAACAu4idAACAKoROAACcsgROIiceGbIAAHA130kAAABqEDoBAHCYYQJVWfvQl9fXAXBE9c9onicAAEAFQicAAA6pPkTgOcMVAAAAAACgF6ETAAC7eFUdAACQqvp3FX/xAAAAmJ3QCQCAzaoPDeDNdQCX8fo6AI6q/nnNMwUAAJjZu7MLAMB3qg8K2MZABQAAAAAA6MmOTgAAfMlr6gDgOoJRgHaqf4/xTAEAAGYldAIA4KnqgwF4xnUB13LNAcBxYicAAGBGQicAAH5hFyeOMEQBACCN7zUAAADzEToBAPAvgRMAiao9m4SjAG1V/47juQIAAMzm3RkFAKit+g//sJVrBQAAAAAA7mVHJwCAouzgRCv+ljgAAMmqf+/xeR0AAJiJ0AkAoBiBEwCj8fo6AM6q/h3IswUAAJiFV9cBABRR/Yd9+qgyMHH9AAAAAADA/ezoBAAwOTs4AcB47LwB0F7170WeLQAAwAyETgAAkxI4QRuuI8jgWgSA88ROAADA6Ly6DgBgIobAXMmQBACA0SzfmXyOBQAAGJcdnQAAJmD3JgCYj0E8QB/Vvzt5vgAAACMTOgEADOozbqr+Iz305PqCLK5JAGhD7AQAAIzKq+sAAAZiwEsKgxEAAEbmFXYAAABjsqMTAEA4OzcBQF2G8AD9VP+O5RkDAACMyI5OAACBqv/gTrYqAxHXIWSyAwcAAAAA1GVHJwCAEHZuAgAAuFb171/iYQAAYDR2dAIAuEn1H9QBgG2WIbTPDQD04jkDAACMxI5OAAAXsmsTo/PaOiCBaxSAljxXAAAAxmFHJwCATvxYDgC0YrcNgL6We2zl17h5zgAAAKMQOgEANOJHYQAAAEYldgIAAEYgdAIAOMCPv1TktXVAkuo7bwDQnmcLAABAPqETAMALggcAIIWdNgDozbMGAABIJ3QCAMrzIy4AAABvdnX6l9gJAABIJnQCAKbnB1o4z2vrgESG0QD04PkCAACQS+gEAAxHiAAAVGWXDQCu4HkDAACk+uPtz//84+zAdr3/NpcfEAAAAAAAAACudcWunmbBcN4PxxAAAAAAAAAAAEgndAIAAAAAAAAAAOIJnQAAAAAAAAAAgHhCJwAAAAAAAAAAIJ7QCQAAAAAAAAAAiCd0AgAAAAAAAAAA4gmdAAAAAAAAAACAeEInAAAAAAAAAAAgntAJAAAAAAAAAACIJ3QCAAAAAAAAAADiCZ0AAAAAAAAAAIB4QicAAAAAAAAAACCe0AkAAAAAAAAAAIgndAIAAAAAAAAAAOIJnQAAAAAAAAAAgHhCJwAAAAAAAAAAIJ7QCQAAAAAAAAAAiCd0AgAAAAAAAAAA4gmdAAAAAAAAAACAeEInAAAAAAAAAAAgntAJAAAAAAAAAACIJ3QCAAAAAAAAAADiCZ0AAAAAAAAAAIB4QicAAAAAAAAAACCe0AkAAAAAAAAAAIgndAIAAAAAAAAAAOIJnQAAAAAAAAAAgHhCJwAAAAAAAAAAIJ7QCQAAAAAAAAAAiCd0AgAAAAAAAAAA4gmdAAAAAAAAAACAeEInAAAAAAAAAAAgntAJAAAAAAAAAACIJ3QCAAAAAAAAAADiCZ0AAAAAAAAAAIB4QicAAAAAAAAAACCe0AkAAAAAAAAAAIgndAIAAAAAAAAAAOIJnQAAAAAAAAAAgHhCJwAAAAAAAAAAIJ7QCQAAAAAAAAAAiCd0AgAAAAAAAAAA4gmdAAAAAAAAAACAeEInAAAAAAAAAAAgntAJAAAAAAAAAACIJ3QCAAAAAAAAAADiCZ0AAAAAAAAAAIB4QicAAAAAAAAAACCe0AkAAAAAAAAAAIgndAIAAAAAAAAAAOIJnQAAAAAAAAAAgHhCJwAAAAAAAAAAIJ7QCQAAAAAAAAAAiCd0AgAAAAAAAAAA4gmdAAAAAAAAAACAeEInAAAAAAAAAAAgntAJAAAAAAAAAACIJ3QCAAAAAAAAAADiCZ0AAAAAAAAAAIB4QicAAAAAAAAAACCe0AkAAAAAAAAAAIgndAIAAAAAAAAAAOIJnQAAAAAAAAAAgHhCJwAAAAAAAAAAIJ7QCQAAAAAAAAAAiCd0AgAAAAAAAAAA4gmdAAAAAAAAAACAeEInAAAAAAAAAAAgntAJAAAAAAAAAACIJ3QCAAAAAAAAAADiCZ0AAAAAAAAAAIB4QicAAAAAAAAAACCe0AkAAAAAAAAAAIgndAIAAAAAAAAAAOIJnQAAAAAAAAAAgHhCJwAAAAAAAAAAIJ7QCQAAAAAAAAAAiCd0AgAAAAAAAAAA4gmdAAAAAAAAAACAeEInAAAAAAAAAAAgntAJAAAAAAAAAACIJ3QCAAAAAAAAAADiCZ0AAAAAAAAAAIB4QicAAAAAAAAAACCe0AkAAAAAAAAAAIgndAIAAAAAAAAAAOIJnQAAAAAAAAAAgHhCJwAAAAAAAAAAIJ7QCQAAAAAAAAAAiCd0AgAAAAAAAAAA4gmdAAAAAAAAAACAeEInAAAAAAAAAAAgntAJAAAAAAAAAACI9+4UAQAArf3zv/8OcUz/+OvvgP8X9NBqDVoj/Yxyn/hkLfQ12np4syYuNeL6uEvFdXl2fbiWAQAAxiJ0AgAAytoyGDP8Gk/Lgfjy77IGeHO/4AlrAgAAAOB6QicAAIAXng2yDa6BZ9wvWLMmAAAAANoSOgEAAOz0OLg2sJ6fXZ04w/2CNWsCAAAA4DihEwAAwAkG1llavrYOWnO/YM2aAAAAANjnh+MFAADQxjKwFtrMyXmlNfcL1qwJAAAAgO8JnQAAABozrL6HY86I3C9YsyYAAAAAviZ0AgAA6MSwGtjK/YI16wEAAADgd0InAACAzgyr+7viGDuPXME645EADgAAAOBXQicAAIALGFQDW7lfsGZNAAAAAHwQOgEAAFzEoHp8ziFXsdZYsyYAAAAA3t7eHQMAAIDrLIPqP/762xFvyPC/piuuo7vXlvvFPr2PVcK9xpoAAAAAqhM6AQAAka4e5F45wDaohjG8uk6vume4X+T47jxYE7kcLwAAAJiH0AkAAOCLIWjPobVBdRtHz9Fy7I/+b5073p7cM9wvuHJNAAAAAFT1w5kHAAB4bhlaf/7DfJxXWnK/YK3nehBRAQAAAFUJnQAAADboMaw2qB6Xc8crPQIXa25cvYInawIAAACoSOgEAACwkd1aspx5bR1cQezEI88QAAAAgPOETgAAADsZVM/jzLkUnbCF+wVrLdeE+xAAAABQjdAJAADggFaDakPqYxw3RiJ2Ys2aAAAAADhG6AQAAHCQQfV4np0z55EriCNZc+8BAAAA2E/oBAAAwFCSQg/RCXsIW+jBfQgAAACoROgEAABwgnABgKM8QwAAAAD2EToBAABQwqug4ExsYDcV9hC2AAAAAMBxQicAAACGISoC1wEAAAAAdQmdAAAAAOAmdvkCAAAA2E7oBAAAwBDO7GKzJSTw+joAAAAAgGxCJwAAAAAAAAAAIJ7QCQAAgKld9VoouzqxlVeVAQAAAMAxQicAAADiXRURCVAAAAAAAHIJnQAAAKARuzqxhXUCAAAAAMcInQAAAE44GyzYQeh7Z46x4wsAAAAAMA+hEwAAADwQRwEAAAAAZBI6AQAAHOT1U/2NeIytCwAAAACAPoROAAAAN7FzUF9njq9zQzLrcy7iSAAAAIDthE4AAAAHGEzzivXBV6wNAAAAADhO6AQAALBTi1DBjizfO3OcHV9gBMI3AAAAgH2ETgAAABstA2mRUx3OE62JWujBvQoAAACo5N3Zhix++AaAexkW8pVWn9OssW1m+Fy8/Bmcbz65h7Dm+z/AuNzDAQDgPkInAACAL7QeYAgUrtHyOC//LoMsoDX3FQAAAIBjhE4AAAAPeg2fRU412dWJN7s5sdLyOWNNAAAAANUInQAAgJKu3E3DIHofO50wC2uZNWsCAAAA4ByhEwAAEGmWYbDI6Vo9jvfZ19fZ1akmr75kzZq4zwyfKZxvAAAA+CB0AgAA6MBA8hi7nTA6a5i1HmvCMwYAAACoSugEAADQkOHzfRx77tQzcLK2xyN4AwAAAOhD6AQAAHCSCKGN5DDA6+t45oo1a92M46p7mDUBAAAAVCZ0AgAAOMCgGWq5I8Rzn8l1V5hpTQAAAADVCZ0AAAAOWA+5DZ/vdcXxt6tTltlfDWat7GdNAAAAAMxP6AQAANCA8Omc2QMF2MP9gzVrAgAAAOCD0AkAAKCDx3DHgLovx5eZWM+sWRMAAAAAP/1wLAAAAPpaoic7Fn1tpGNzNjiwDnhF0MKjZT1YEwAAAAC/sqMTAADART4jF4Nr4JF7AmvWBAAAAMBzdnQCAAC4mB2e2rkjBrCrE63YsYc1awIAAADgNTs6AQAAka4a9N4ZnSz/7eoDbdEPFVW/7vmdNdGX4wsAAADzEDoBAAClfTf87B3iiJ1qct5rcs55ZD0AAAAA7Cd0AgAAeGE9iO4RPlWNXs4eyzuP2fLfthsVW4hZeGQ9AAAAAJwjdAIAANjhc0jdOnKxww/MwXXMI+sBAAAAoK0fjicAAMB+y/D6859WKu0QNPJuTq3YEQrm5zoHAAAAaMuOTgAAACe1fI2ZnZ3G4fV19+pxnbQ4n67h+7Q+7u7rAAAAAHmETgAAAA2IXq41y7EWQMzJeZ2D+zoAAABAHq+uAwAAaKRV2DD7YF04QCpxEmvu6wAAAABZhE4AAAANCSVgbMIWerEmAAAAAM7z6jrYyeAKAIDvtHjd0ayvvjLo/53XnM3LuZ1Dy1fYWRMAc3AvBwCA+9jRCQAAoAPDDxhXy+tX3DcH93QAAACADEInAAAAuJkYJo+whV5c7wAAAADHCZ0AAABCzTYMN9xnNK1iJ2t/Dnb6AgAAALif0AkAAKATO8Kwh/Bhbs7vHNzXAQAAAO4ldAIAAKA7kQejErawZqcvAAAAgPsInQAAAABeELbQizUBAAAAsI/QCQAAgK4M8rdzrObnHM+h5U5f1gQAAADAdu+OFQAAAMlGenWYYGFeyzpsdX6Xf49X4o2v5ZoAAAAAYBs7OgEAAEAjLeIV4UQucRK9uO4BAAAAthE6AQAA0I3hPTzn2piDV9gBAAAAXEvoBAAA0Imh9Xkj7qBj15+5CVtYc80DAAAAXEfoBAAAQBcijuMcu2xiJ3qxHgAAAABeEzoBAACEqr5LSPU/P9msTx6J3wAAAACuIXQCAADowKC6thbRgzVUh3M9B7ETAAAAQH9CJwAAAJozpKcCYQtrdvoCAAAA6EvoBAAA0Jhg4TyxwAdrKZ+1Si+ufwAAAIDfCZ0AAAAaajWYHjmeMJz/IIBhL9fOHOz0BQAAANCP0AkAAKARA+k2BEKMRtjCmvsYAAAAQB9CJwAAgAZaxgl2c5pHi3PpmI5B7EQv1gMAAADAT0InAACAkwyhgTe7+LAifgMAAABoT+gEAABw0DJ4bj18rh5KVP/zf0XkUI9zPgexEwAAAEBbQicAAICdegROM3BMnhNv1SJsYc09AAAAAKCdd8cSAADgtatig+rD8Op/fuaxrGWREj0s68q9EgAAAKjMjk4AAAArnzs2Xblz0+iDa1FHf45xTc77HOz0BQAAANCGHZ0AAIBIlQa5dueYnx1+6ml5zu3iMwdr4j7V7r/Wxj4+cwIAAIzFjk4AAAA3MnD64DhsI5Yai118AAAAAKAtoRMAAMBNZol7BBjbiLkA8RsAAADAOUInAACAiy2DbtELR4kbxiJsYc2aAAAAADhO6AQAAHCh2QKnFkN20RezE7YAAAAAQBtCJwAAgAvYxYk3UVdpzj2PxG8AAAAAxwidAAAAOpo5cLKb032EDbU5/3MQOwEAAADsJ3QCAADowA5OfMW6qEvYwpo1AQAAALCP0AkAAKCRz7hJyMIVRA1jErYAAAAAwHFCJwAAgBOqxk1eWwfQhvgNAAAAYDuhEwAAwEaPUZOdmzjD2qlN2MKaNQEAAACwzbvjBAAA8EF8ch3Huo0laHAsx7ScN0EKAAAAAOzzx9uf//nHMQMAAAAAAAAAAJJ5dR0AAAAAAAAAABBP6AQAAAAAAAAAAMQTOgEAAAAAAAAAAPGETgAAAAAAAAAAQDyhEwAAAAAAAAAAEE/oBAAAAAAAAAAAxBM6AQAAAAAAAAAA8YROAAAAAAAAAABAPKETAAAAAAAAAAAQT+gEAAAAAAAAAADEEzoBAAAAAAAAAADxhE4AAAAAAAAAAEA8oRMAAAAAAAAAABBP6AQAAAAAAAAAAMQTOgEAAAAAAAAAAPGETgAAAAAAAAAAQDyhEwAAAAAAAAAAEE/oBAAAAAAAAAAAxBM6AQAAAAAAAAAA8YROAAAAAAAAAABAPKETAAAAAAAAAAAQT+gEAAAAAAAAAADEEzoBAAAAAAAbXncZAAAgAElEQVQAAADxhE4AAAAAAAAAAEA8oRMAAAAAAAAAABBP6AQAAAAAAAAAAMQTOgEAAAAAAAAAAPGETgAAAAAAAAAAQDyhEwAAAAAAAAAAEE/oBAAAAAAAAAAAxBM6AQAAAAAAAAAA8YROAAAAAAAAAABAPKETAAAAAAAAAAAQT+gEAAAAAAAAAADEEzoBAAAAAAAAAADxhE4AAAAAAAAAAEA8oRMAAAAAAAAAABBP6AQAAAAAAAAAAMQTOgEAAAAAAAAAAPGETgAAAAAAAAAAQDyhEwAAAAAAAAAAEE/oBAAAAAAAAAAAxBM6AQAAAAAAAAAA8YROAAAAAAAAAABAPKETAAAAAAAAAAAQT+gEAAAAAAAAAADEEzoBAAAAAAAAAADxhE4AAAAAAAAAAEA8oRMAAAAAAAAAABBP6AQAAAAAAAAAAMQTOgEAAAAAAAAAAPGETgAAAAAAAAAAQDyhEwAAAAAAAAAAEE/oBAAAAAAAAAAAxBM6AQAAAAAAAAAA8YROAAAAAAAAAABAPKETAAAAAAAAAAAQT+gEAAAAAAAAAADEEzoBAAAAAAAAAADxhE4AAAAAAAAAAEA8oRMAAAAAAAAAABBP6AQAAAAAAAAAAMQTOgEAAAAAAAAAAPGETgAAAAAAAAAAQDyhEwAAAAAAAAAAEE/oBAAAAAAAAAAAxBM6AQAAAAAAAAAA8YROAAAAAAAAAABAPKETAAAAAAAAAAAQT+gEAAAAAAAAAADEEzoBAAAAAAAAAADxhE4AAAAAAAAAAEA8oRMAAAAAAAAAABBP6AQAAAAAAAAAAMQTOgEAAAAAAAAAAPGETgAAAAAAAAAAQDyhEwAAAAAAAAAAEE/oBAAAAAAAAAAAxBM6AQAAAAAAAAAA8YROAAAAAAAAAABAPKETAAAAAAAAAAAQT+gEAAAAAAAAAADEEzoBAAAAAAAAAADxhE4AAAAAAAAAAEA8oRMAAAAAAAAAABBP6AQAAAAAAAAAAMQTOgEAAAAAAAAAAPGETgAAAAAAAAAAQDyhEwAAAAAAAAAAEE/oBAAAAAAAAAAAxBM6AQAAAAAAAAAA8YROAAAAAAAAAABAPKETAAAAAAAAAAAQT+gEAAAAAAAAAADEEzoBAAAAAAAAAADxhE4AAAAAAAAAAEA8oRMAAAAAAAAAABBP6AQAAAAAAAAAAMQTOgEAAAAAAAAAAPGETgAAAAAAAAAAQDyhEwAAAAAAAAAAEE/oBAAAAAAAAAAAxBM6AQAAAAAAAAAA8YROAAAAAAAAAABAPKETAAAAAAAAAAAQT+gEAAAAAAAAAADEEzoBAAAAAAAAAADxhE4AAAAAAAAAAEA8oRMAAAAAAAAAABBP6AQAAAAAAAAAAMQTOgEAAAAAAAAAAPGETgAAAAAAAAAAQDyhEwAAAAAAAAAAEE/oBAAAAAAAAAAAxBM6AQAAAAAAAAAA8YROAAAAAAAAAABAPKETAAAAAAAAAAAQT+gEAAAAAAAAAADEEzoBAAAAAAAAAADxhE4AAAAAAAAAAEA8oRMAAAAAAAAAABBP6AQAAAAAAAAAAMQTOgEAAAAAAAAAAPGETgAAAAAAAAAAQDyhEwAAAAAAAAAAEE/oBAAAAAAAAAAAxBM6AQAAAAAAAAAA8YROAAAAAAAAAABAPKETAAAAAAAAAAAQT+gEAAAAAAAAAADEEzoBAAAAAAAAAADxhE4AAAAAAAAAAEA8oRMAAAAAAAAAABBP6AQAAAAAAAAAAMQTOgEAAAAAAAAAAPGETgAAAAAAAAAAQDyhEwAAAAAAAAAAEE/oBAAAAAAAAAAAxBM6AQAAAAAAAAAA8YROAAAAAAAAAABAPKETAAAAAAAAAAAQT+gEAAAAAAAAAADEEzoBAAAAAAAAAADxhE4AAAAAAAAAAEA8oRMAAAAAAAAAABBP6AQAAAAAAAAAAMQTOgEAAAAAAAAAAPGETgAAAAAAAAAAQDyhEwAAAAAAAAAAEE/oBAAAAAAAAAAAxBM6AQAAAAAAAAAA8YROAAAAAAAAAABAPKETAAAAAAAAAAAQT+gEAAAAAAAAAADEEzoBAAAAAAAAAADxhE4AAAAAAAAAAEA8oRMAAAAAAAAAABBP6AQAAAAAAAAAAMQTOgEAAAAAAAAAAPGETgAAAAAAAADA/9m1YwEAAACAQf7W09hRHAHsiU4AAAAAAAAAAMCe6AQAAAAAAAAAAOyJTgAAAAAAAAAAwJ7oBAAAAAAAAAAA7IlOAAAAAAAAAADAnugEAAAAAAAAAADsiU4AAAAAAAAAAMCe6AQAAAAAAAAAAOyJTgAAAAAAAAAAwJ7oBAAAAAAAAAAA7IlOAAAAAAAAAADAnugEAAAAAAAAAADsiU4AAAAAAAAAAMCe6AQAAAAAAAAAAOyJTgAAAAAAAAAAwJ7oBAAAAAAAAAAA7IlOAAAAAAAAAADAnugEAAAAAAAAAADsiU4AAAAAAAAAAMCe6AQAAAAAAAAAAOyJTgAAAAAAAAAAwJ7oBAAAAAAAAAAA7IlOAAAAAAAAAADAnugEAAAAAAAAAADsiU4AAAAAAAAAAMCe6AQAAAAAAAAAAOyJTgAAAAAAAAAAwJ7oBAAAAAAAAAAA7IlOAAAAAAAAAADAnugEAAAAAAAAAADsiU4AAAAAAAAAAMCe6AQAAAAAAAAAAOyJTgAAAAAAAAAAwJ7oBAAAAAAAAAAA7IlOAAAAAAAAAADAnugEAAAAAAAAAADsiU4AAAAAAAAAAMCe6AQAAAAAAAAAAOyJTgAAAAAAAAAAwJ7oBAAAAAAAAAAA7IlOAAAAAAAAAADAnugEAAAAAAAAAADsiU4AAAAAAAAAAMCe6AQAAAAAAAAAAOyJTgAAAAAAAAAAwJ7oBAAAAAAAAAAA7IlOAAAAAAAAAADAnugEAAAAAAAAAADsiU4AAAAAAAAAAMCe6AQAAAAAAAAAAOyJTgAAAAAAAAAAwJ7oBAAAAAAAAAAA7IlOAAAAAAAAAADAnugEAAAAAAAAAADsiU4AAAAAAAAAAMCe6AQAAAAAAAAAAOyJTgAAAAAAAAAAwJ7oBAAAAAAAAAAA7IlOAAAAAAAAAADAnugEAAAAAAAAAADsiU4AAAAAAAAAAMCe6AQAAAAAAAAAAOyJTgAAAAAAAAAAwJ7oBAAAAAAAAAAA7IlOAAAAAAAAAADAnugEAAAAAAAAAADsiU4AAAAAAAAAAMCe6AQAAAAAAAAAAOyJTgAAAAAAAAAAwJ7oBAAAAAAAAAAA7IlOAAAAAAAAAADAnugEAAAAAAAAAADsiU4AAAAAAAAAAMCe6AQAAAAAAAAAAOyJTgAAAAAAAAAAwJ7oBAAAAAAAAAAA7IlOAAAAAAAAAADAnugEAAAAAAAAAADsiU4AAAAAAAAAAMCe6AQAAAAAAAAAAOyJTgAAAAAAAAAAwJ7oBAAAAAAAAAAA7IlOAAAAAAAAAADAnugEAAAAAAAAAADsiU4AAAAAAAAAAMCe6AQAAAAAAAAAAOyJTgAAAAAAAAAAwJ7oBAAAAAAAAAAA7IlOAAAAAAAAAADAnugEAAAAAAAAAADsiU4AAAAAAAAAAMCe6AQAAAAAAAAAAOyJTgAAAAAAAAAAwJ7oBAAAAAAAAAAA7IlOAAAAAAAAAADAnugEAAAAAAAAAADsiU4AAAAAAAAAAMCe6AQAAAAAAAAAAOyJTgAAAAAAAAAAwJ7oBAAAAAAAAAAA7IlOAAAAAAAAAADAnugEAAAAAAAAAADsiU4AAAAAAAAAAMCe6AQAAAAAAAAAAOyJTgAAAAAAAAAAwJ7oBAAAAAAAAAAA7IlOAAAAAAAAAADAnugEAAAAAAAAAADsiU4AAAAAAAAAAMCe6AQAAAAAAAAAAOyJTgAAAAAAAAAAwJ7oBAAAAAAAAAAA7IlOAAAAAAAAAADAnugEAAAAAAAAAADsiU4AAAAAAAAAAMCe6AQAAAAAAAAAAOyJTgAAAAAAAAAAwJ7oBAAAAAAAAAAA7IlOAAAAAAAAAADAnugEAAAAAAAAAADsiU4AAAAAAAAAAMCe6AQAAAAAAAAAAOyJTgAAAAAAAAAAwJ7oBAAAAAAAAAAA7IlOAAAAAAAAAADAnugEAAAAAAAAAADsiU4AAAAAAAAAAMCe6AQAAAAAAAAAAOyJTgAAAAAAAAAAwJ7oBAAAAAAAAAAA7IlOAAAAAAAAAADAnugEAAAAAAAAAADsiU4AAAAAAAAAAMCe6AQAAAAAAAAAAOyJTgAAAAAAAAAAwJ7oBAAAAAAAAAAA7IlOAAAAAAAAAADAnugEAAAAAAAAAADsiU4AAAAAAAAAAMCe6AQAAAAAAAAAAOyJTgAAAAAAAAAAwJ7oBAAAAAAAAAAA7IlOAAAAAAAAAADAnugEAAAAAAAAAADsiU4AAAAAAAAAAMCe6AQAAAAAAAAAAOyJTgAAAAAAAAAAwJ7oBAAAAAAAAAAA7IlOAAAAAAAAAADAnugEAAAAAAAAAADsiU4AAAAAAAAAAMCe6AQAAAAAAAAAAOyJTgAAAAAAAAAAwJ7oBAAAAAAAAAAA7IlOAAAAAAAAAADAnugEAAAAAAAAAADsiU4AAAAAAAAAAMCe6AQAAAAAAAAAAOyJTgAAAAAAAAAAwJ7oBAAAAAAAAAAA7IlOAAAAAAAAAADAnugEAAAAAAAAAADsiU4AAAAAAAAAAMCe6AQAAAAAAAAAAOyJTgAAAAAAAAAAwJ7oBAAAAAAAAAAA7IlOAAAAAAAAAADAnugEAAAAAAAAAADsiU4AAAAAAAAAAMCe6AQAAAAAAAAAAOyJTgAAAAAAAAAAwJ7oBAAAAAAAAAAA7IlOAAAAAAAAAADAnugEAAAAAAAAAADsiU4AAAAAAAAAAMCe6AQAAAAAAAAAAOyJTgAAAAAAAAAAwJ7oBAAAAAAAAAAA7IlOAAAAAAAAAADAnugEAAAAAAAAAADsiU4AAAAAAAAAAMCe6AQAAAAAAAAAAOyJTgAAAAAAAAAAwJ7oBAAAAAAAAAAA7IlOAAAAAAAAAADAnugEAAAAAAAAAADsiU4AAAAAAAAAAMCe6AQAAAAAAAAAAOyJTgAAAAAAAAAAwJ7oBAAAAAAAAAAA7IlOAAAAAAAAAADAnugEAAAAAAAAAADsiU4AAAAAAAAAAMCe6AQAAAAAAAAAAOyJTgAAAAAAAAAAwJ7oBAAAAAAAAAAA7IlOAAAAAAAAAADAnugEAAAAAAAAAADsiU4AAAAAAAAAAMCe6AQAAAAAAAAAAOyJTgAAAAAAAAAAwJ7oBAAAAAAAAAAA7IlOAAAAAAAAAADAnugEAAAAAAAAAADsiU4AAAAAAAAAAMCe6AQAAAAAAAAAAOyJTgAAAAAAAAAAwJ7oBAAAAAAAAAAA7IlOAAAAAAAAAADAnugEAAAAAAAAAADsiU4AAAAAAAAAAMCe6AQAAAAAAAAAAOyJTgAAAAAAAAAAwJ7oBAAAAAAAAAAA7IlOAAAAAAAAAADAnugEAAAAAAAAAADsiU4AAAAAAAAAAMCe6AQAAAAAAAAAAOyJTgAAAAAAAAAAwJ7oBAAAAAAAAAAA7IlOAAAAAAAAAADAnugEAAAAAAAAAADsiU4AAAAAAAAAAMCe6AQAAAAAAAAAAOyJTgAAAAAAAAAAwJ7oBAAAAAAAAAAA7IlOAAAAAAAAAADAnugEAAAAAAAAAADsiU4AAAAAAAAAAMCe6AQAAAAAAAAAAOyJTgAAAAAAAAAAwJ7oBAAAAAAAAAAA7IlOAAAAAAAAAADAnugEAAAAAAAAAADsiU4AAAAAAAAAAMCe6AQAAAAAAAAAAOyJTgAAAAAAAAAAwJ7oBAAAAAAAAAAA7IlOAAAAAAAAAADAnugEAAAAAAAAAADsiU4AAAAAAAAAAMCe6AQAAAAAAAAAAOyJTgAAAAAAAAAAwJ7oBAAAAAAAAAAA7IlOAAAAAAAAAADAnugEAAAAAAAAAADsiU4AAAAAAAAAAMCe6AQAAAAAAAAAAOyJTgAAAAAAAAAAwJ7oBAAAAAAAAAAA7IlOAAAAAAAAAADAnugEAAAAAAAAAADsiU4AAAAAAAAAAMCe6AQAAAAAAAAAAOyJTgAAAAAAAAAAwJ7oBAAAAAAAAAAA7IlOAAAAAAAAAADAnugEAAAAAAAAAADsiU4AAAAAAAAAAMCe6AQAAAAAAAAAAOyJTgAAAAAAAAAAwJ7oBAAAAAAAAAAA7IlOAAAAAAAAAADAnugEAAAAAAAAAADsiU4AAAAAAAAAAMCe6AQAAAAAAAAAAOyJTgAAAAAAAAAAwJ7oBAAAAAAAAAAA7IlOAAAAAAAAAADAnugEAAAAAAAAAADsiU4AAAAAAAAAAMCe6AQAAAAAAAAAAOyJTgAAAAAAAAAAwJ7oBAAAAAAAAAAA7IlOAAAAAAAAAADAnugEAAAAAAAAAADsiU4AAAAAAAAAAMCe6AQAAAAAAAAAAOyJTgAAAAAAAAAAwJ7oBAAAAAAAAAAA7IlOAAAAAAAAAADAnugEAAAAAAAAAADsiU4AAAAAAAAAAMCe6AQAAAAAAAAAAOyJTgAAAAAAAAAAwJ7oBAAAAAAAAAAA7IlOAAAAAAAAAADAnugEAAAAAAAAAADsiU4AAAAAAAAAAMCe6AQAAAAAAAAAAOyJTgAAAAAAAAAAwJ7oBAAAAAAAAAAA7IlOAAAAAAAAAADAnugEAAAAAAAAAADsiU4AAAAAAAAAAMCe6AQAAAAAAAAAAOyJTgAAAAAAAAAAwJ7oBAAAAAAAAAAA7IlOAAAAAAAAAADAnugEAAAAAAAAAADsiU4AAAAAAAAAAMCe6AQAAAAAAAAAAOyJTgAAAAAAAAAAwJ7oBAAAAAAAAAAA7IlOAAAAAAAAAADAnugEAAAAAAAAAADsiU4AAAAAAAAAAMCe6AQAAAAAAAAAAOyJTgAAAAAAAAAAwJ7oBAAAAAAAAAAA7IlOAAAAAAAAAADAnugEAAAAAAAAAADsiU4AAAAAAAAAAMCe6AQAAAAAAAAAAOyJTgAAAAAAAAAAwJ7oBAAAAAAAAAAA7IlOAAAAAAAAAADAnugEAAAAAAAAAADsiU4AAAAAAAAAAMCe6AQAAAAAAAAAAOyJTgAAAAAAAAAAwJ7oBAAAAAAAAAAA7IlOAAAAAAAAAADAnugEAAAAAAAAAADsiU4AAAAAAAAAAMCe6AQAAAAAAAAAAOyJTgAAAAAAAAAAwJ7oBAAAAAAAAAAA7IlOAAAAAAAAAADAnugEAAAAAAAAAADsiU4AAAAAAAAAAMCe6AQAAAAAAAAAAOyJTgAAAAAAAAAAwJ7oBAAAAAAAAAAA7IlOAAAAAAAAAADAnugEAAAAAAAAAADsiU4AAAAAAAAAAMCe6AQAAAAAAAAAAOyJTgAAAAAAAAAAwJ7oBAAAAAAAAAAA7IlOAAAAAAAAAADAnugEAAAAAAAAAADsiU4AAAAAAAAAAMCe6AQAAAAAAAAAAOyJTgAAAAAAAAAAwJ7oBAAAAAAAAAAA7IlOAAAAAAAAAADAnugEAAAAAAAAAADsiU4AAAAAAAAAAMCe6AQAAAAAAAAAAOyJTgAAAAAAAAAAwJ7oBAAAAAAAAAAA7IlOAAAAAAAAAADAnugEAAAAAAAAAADsiU4AAAAAAAAAAMCe6AQAAAAAAAAAAOyJTgAAAAAAAAAAwJ7oBAAAAAAAAAAA7IlOAAAAAAAAAADAnugEAAAAAAAAAADsiU4AAAAAAAAAAMCe6AQAAAAAAAAAAOyJTgAAAAAAAAAAwJ7oBAAAAAAAAAAA7IlOAAAAAAAAAADAnugEAAAAAAAAAADsiU4AAAAAAAAAAMCe6AQAAAAAAAAAAOyJTgAAAAAAAAAAwJ7oBAAAAAAAAAAA7IlOAAAAAAAAAADAnugEAAAAAAAAAADsiU4AAAAAAAAAAMCe6AQAAAAAAAAAAOyJTgAAAAAAAAAAwJ7oBAAAAAAAAAAA7IlOAAAAAAAAAADAnugEAAAAAAAAAADsiU4AAAAAAAAAAMCe6AQAAAAAAAAAAOyJTgAAAAAAAAAAwJ7oBAAAAAAAAAAA7IlOAAAAAAAAAADAnugEAAAAAAAAAADsiU4AAAAAAAAAAMCe6AQAAAAAAAAAAOyJTgAAAAAAAAAAwJ7oBAAAAAAAAAAA7IlOAAAAAAAAAADAnugEAAAAAAAAAADsiU4AAAAAAAAAAMCe6AQAAAAAAAAAAOyJTgAAAAAAAAAAwJ7oBAAAAAAAAAAA7IlOAAAAAAAAAADAnugEAAAAAAAAAADsiU4AAAAAAAAAAMCe6AQAAAAAAAAAAOyJTgAAAAAAAAAAwJ7oBAAAAAAAAAAA7IlOAAAAAAAAAADAnugEAAAAAAAAAADsiU4AAAAAAAAAAMCe6AQAAAAAAAAAAOyJTgAAAAAAAAAAwJ7oBAAAAAAAAAAA7IlOAAAAAAAAAADAnugEAAAAAAAAAADsiU4AAAAAAAAAAMCe6AQAAAAAAAAAAOyJTgAAAAAAAAAAwJ7oBAAAAAAAAAAA7IlOAAAAAAAAAADAnugEAAAAAAAAAADsiU4AAAAAAAAAAMCe6AQAAAAAAAAAAOyJTgAAAAAAAAAAwJ7oBAAAAAAAAAAA7IlOAAAAAAAAAADAnugEAAAAAAAAAADsiU4AAAAAAAAAAMCe6AQAAAAAAAAAAOyJTgAAAAAAAAAAwJ7oBAAAAAAAAAAA7IlOAAAAAAAAAADAnugEAAAAAAAAAADsiU4AAAAAAAAAAMCe6AQAAAAAAAAAAOyJTgAAAAAAAAAAwJ7oBAAAAAAAAAAA7IlOAAAAAAAAAADAnugEAAAAAAAAAADsiU4AAAAAAAAAAMCe6AQAAAAAAAAAAOyJTgAAAAAAAAAAwJ7oBAAAAAAAAAAA7IlOAAAAAAAAAADAnugEAAAAAAAAAADsiU4AAAAAAAAAAMCe6AQAAAAAAAAAAOyJTgAAAAAAAAAAwJ7oBAAAAAAAAAAA7IlOAAAAAAAAtWvHBAAAAAiD7J/aGjsgBwAAQJ7oBAAAAAAAAAAA5IlOAAAAAAAAAABAnugEAAAAAAAAAADkiU4AAAAAAAAAAECe6AQAAAAAAAAAAOSJTgAAAAAAAAAAQJ7oBAAAAAAAAAAA5IlOAAAAAAAAAABAnugEAAAAAAAAAADkiU4AAAAAAAAAAECe6AQAAAAAAAAAAOSJTgAAAAAAAAAAQJ7oBAAAAAAAAAAA5IlOAAAAAAAAAABAnugEAAAAAAAAAADkiU4AAAAAAAAAAECe6AQAAAAAAAAAAOSJTgAAAAAAAAAAQJ7oBAAAAAAAAAAA5IlOAAAAAAAAAABAnugEAAAAAAAAAADkiU4AAAAAAAAAAECe6AQAAAAAAAAAAOSJTgAAAAAAAAAAQJ7oBAAAAAAAAAAA5IlOAAAAAAAAAABAnugEAAAAAAAAAADkiU4AAAAAAAAAAECe6AQAAAAAAAAAAOSJTgAAAAAAAAAAQJ7oBAAAAAAAAAAA5IlOAAAAAAAAAABAnugEAAAAAAAAAADkiU4AAAAAAAAAAECe6AQAAAAAAAAAAOSJTgAAAAAAAAAAQJ7oBAAAAAAAAAAA5IlOAAAAAAAAAABAnugEAAAAAAAAAADkiU4AAAAAAAAAAECe6AQAAAAAAAAAAOSJTgAAAAAAAAAAQJ7oBAAAAAAAAAAA5IlOAAAAAAAAAABAnugEAAAAAAAAAADkiU4AAAAAAAAAAECe6AQAAAAAAAAAAOSJTgAAAAAAAAAAQJ7oBAAAAAAAAAAA5IlOAAAAAAAAAABAnugEAAAAAAAAAADkiU4AAAAAAAAAAECe6AQAAAAAAAAAAOSJTgAAAAAAAAAAQJ7oBAAAAAAAAAAA5IlOAAAAAAAAAABAnugEAAAAAAAAAADkiU4AAAAAAAAAAECe6AQAAAAAAAAAAOSJTgAAAAAAAAAAQJ7oBAAAAAAAAAAA5IlOAAAAAAAAAABAnugEAAAAAAAAAADkiU4AAAAAAAAAAECe6AQAAAAAAAAAAOSJTgAAAAAAAAAAQJ7oBAAAAAAAAAAA5IlOAAAAAAAAAABAnugEAAAAAAAAAADkiU4AAAAAAAAAAECe6AQAAAAAAAAAAOSJTgAAAAAAAAAAQJ7oBAAAAAAAAAAA5IlOAAAAAAAAAABAnugEAAAAAAAAAADkiU4AAAAAAAAAAECe6AQAAAAAAAAAAOSJTgAAAAAAAAAAQJ7oBAAAAAAAAAAA5IlOAAAAAAAAAABAnugEAAAAAAAAAADkiU4AAAAAAAAAAECe6AQAAAAAAAAAAOSJTgAAAAAAAAAAQJ7oBAAAAAAAAAAA5IlOAAAAAAAAAABAnugEAAAAAAAAAADkiU4AAAAAAAAAAECe6AQAAAAAAAAAAOSJTgAAAAAAAAAAQJ7oBAAAAAAAAAAA5IlOAAAAAAAAAABAnugEAAAAAAAAAADkiU4AAAAAAAAAAECe6AQAAAAAAAAAAOSJTgAAAAAAAAAAQJ7oBAAAAAAAAAAA5IlOAAAAAAAAAABAnugEAAAAAAAAAADkiU4AAAAAAAAAAECe6AQAAAAAAAAAAOSJTgAAAAAAAAAAQJ7oBAAAAAAAAAAA5IlOAAAAAAAAAABAnugEAAAAAAAAAADkiU4AAAAAAAAAAECe6AQAAAAAAAAAAOSJTgAAAAAAAAAAQJ7oBAAAAAAAAAAA5IlOAAAAAAAAAABAnugEAAAAAAAAAADkiU4AAAAAAAAAAECe6AQAAAAAAAAAAOSJTgAAAAAAAAAAQJ7oBAAAAAAAAAAA5IlOAAAAAAAAAABAnugEAAAAAAAAAADkiU4AAAAAAAAAAECe6AQAAAAAAAAAAOSJTgAAAAAAAAAAQJ7oBAAAAAAAAAAA5IlOAAAAAAAAAABAnugEAAAAAAAAAADkiU4AAAAAAAAAAECe6AQAAAAAAAAAAOSJTgAAAAAAAAAAQJ7oBK8L/zkAAAJaSURBVAAAAAAAAAAA5IlOAAAAAAAAAABAnugEAAAAAAAAAADkiU4AAAAAAAAAAECe6AQAAAAAAAAAAOSJTgAAAAAAAAAAQJ7oBAAAAAAAAAAA5IlOAAAAAAAAAABAnugEAAAAAAAAAADkiU4AAAAAAAAAAECe6AQAAAAAAAAAAOSJTgAAAAAAAAAAQJ7oBAAAAAAAAAAA5IlOAAAAAAAAAABAnugEAAAAAAAAAADkiU4AAAAAAAAAAECe6AQAAAAAAAAAAOSJTgAAAAAAAAAAQJ7oBAAAAAAAAAAA5IlOAAAAAAAAAABAnugEAAAAAAAAAADkiU4AAAAAAAAAAECe6AQAAAAAAAAAAOSJTgAAAAAAAAAAQJ7oBAAAAAAAAAAA5IlOAAAAAAAAAABAnugEAAAAAAAAAADkiU4AAAAAAAAAAECe6AQAAAAAAAAAAOSJTgAAAAAAAAAAQJ7oBAAAAAAAAAAA5IlOAAAAAAAAAABAnugEAAAAAAAAAADkiU4AAAAAAAAAAECe6AQAAAAAAAAAAOSJTgAAAAAAAAAAQJ7oBAAAAAAAAAAA5IlOAAAAAAAAAABAnugEAAAAAAAAAADkiU4AAAAAAAAAAECe6AQAAAAAAAAAAOSJTgAAAAAAAAAAQJ7oBAAAAAAAAAAA5IlOAAAAAAAAAABAnugEAAAAAAAAAADkiU4AAAAAAAAAAECe6AQAAAAAAAAAAOSJTgAAAAAAAAAAQJ7oBAAAAAAAAAAA5IlOAAAAAAAAAABAnugEAAAAAAAAAADkiU4AAAAAAAAAAEDbtgP2XtERXp5hhQAAAABJRU5ErkJggg==;" vertex="1" parent="1">
          <mxGeometry width="125" height="125" as="geometry" />
        </mxCell>
        <UserObject label="See:" link="https://nvie.com/posts/a-successful-git-branching-model/" id="Q6RhIF0yRRc2ql-Qrk2--9">
          <mxCell style="text;whiteSpace=wrap;html=1;fontSize=20;" vertex="1" parent="1">
            <mxGeometry x="146.25" y="55" width="32.75" height="20" as="geometry" />
          </mxCell>
        </UserObject>
        <mxCell id="Q6RhIF0yRRc2ql-Qrk2--14" value="" style="shape=image;verticalLabelPosition=bottom;labelBackgroundColor=default;verticalAlign=top;aspect=fixed;imageAspect=0;image=https://i.pinimg.com/originals/01/1d/b5/011db55ecc6a52a484a4f9be63158259.png;" vertex="1" parent="1">
          <mxGeometry x="1544" y="385" width="237" height="178.08" as="geometry" />
        </mxCell>
        <mxCell id="Q6RhIF0yRRc2ql-Qrk2--15" value="" style="shape=image;verticalLabelPosition=bottom;labelBackgroundColor=default;verticalAlign=top;aspect=fixed;imageAspect=0;image=https://qph.cf2.quoracdn.net/main-qimg-28cadbd02699c25a88e5c78d73c7babc;" vertex="1" parent="1">
          <mxGeometry x="1126.62" y="410" width="138.76" height="133" as="geometry" />
        </mxCell>
        <mxCell id="Q6RhIF0yRRc2ql-Qrk2--16" value="" style="shape=image;verticalLabelPosition=bottom;labelBackgroundColor=default;verticalAlign=top;aspect=fixed;imageAspect=0;image=data:image/png,iVBORw0KGgoAAAANSUhEUgAAAQsAAAC9CAMAAACTb6i8AAAAwFBMVEX///8TB1QAAEcAAEwAAEm9u8zFw9IAAE8AAEsJAFESBVQNAFL/ygDLydYAAETt7PEAAEFNSHfnBIg4M2eQjaaxsL8nIV719PkAAD9CO3GEgZ59e5VtaY4hF12qqLtWUX397PXc2uWcmbH/00b/zzHvfLRgXYT/78v/++nqMZjxjL/w7/Tj4ukAADuZlq87NG0dEV4yK2V0cZJOSXcwKGbU0t5oYoz/zRvzl8fmAH/2tdUAADYAAC5HQXQoHmMUAFoOlZrsAAAKYElEQVR4nO2dDXfiuBVAQTbItopwdiEGh9gD3bJtIUA8YdrtbJL//6/Wlp78LNmZBGa6acO75+yZNTzL1tW3DKTXIwiCIAiCIAiCIAiCIM5huzJs3/tW3p3BXaC5G773rbw7A9bXMHJBLpDLcrE8Asuudy/LxTyWivi6693LcnEV6syGP3e9Sy4QcoGQC4RcIOQCIRcIuUDIBUIuEHKBkAuEXCDkAiEXyMd2cXzMNVcjdey4yPK1Jt9Uhx/bxTDmGjlQx46LCYO32bg6/OAu6tyBCy9UcHDh6Xej4AJdfNnPFftcHV60CwdygZALhFwg5AK5aBe/1qjDi3bxy1+Af6nDi3bxV+PiF3VILsiFOiYX5KKCXCDkAiEXCM0vENfF32vUYTpjmrsLdOGwHRnU4UW7cCAXCLlAyAVyWS72d7FidtsVfVkunGdF//6H4VN1eNEu/vnbT5rfPlWH5ELxqTokF+RCHZILcqGOyQW5qKAxFXnFxX/+ZvhUHV60CwdygZALhFwg5AK5aBejHfzGwy6pDi/axSSGH3mIL/CZgOvikp8V7e9miruDOnRdfNXfdpdfL8GFg+MiWRqSP/c2/xROc/GxIRcIuUDIBUIuEHKBkAuEXCDkAiEXCLlAyAVCLhBygbzmQnoK2Nf62LziYpBONOlH3LBwOO1zfB8bcoGQC2QohYZclC70712E5IIgCIIgCIIgiP8fPP0Jnt8/4kd0TuVW6MX+6L1v5H8AcoGQC4RcIOQCIRcIuUDIBUIukHd3kQBwNLh5PIjb9eTFefBmmj5Gz7fr3dJOoDO53mhSBj/lk87sbbOb/fPzQ7GCpF5wMZysb8Xh8cY8Y3AuoTlO8gOPZ/z+Znr+Q+unWfVLHXeL6v/HRcy8UAjBPclXXdHjxczXEYF8zqpXNvqnPr5mOoDr5L6ogx2TJrnn1tOSZR6rpEIexIfsRRcrj3m8TCP0mExVNtfq10VmD42gTMgyKOr3o9Dz4/vsTBdz9f0Ovu5Vv33lRX2D8EW7MNOY9xsRvKw9Y32OP9UR16JObij8RnLx2k5qMWsmxW6PnS6G3Bd1VOTFaeVCnRjO66BkLjGoesuPJ2c9xdcuwsde8uD3LcRsZ4cm80bmdAaL3laf5bjIq28QWTfY9xeNpMaHwL5YGK86XExmdhqRXxp4DG0XSZ/3HcTsO1yIh95tK8V+bLeTvdeKkMVYdrgIr3q7uBU7rVPaiNbFonh177qYyNYFvfveg7BdPEJaZWvjoU6iLNrvcPGUVymGAZOSeXVhzJqtPK9VNML8Be9wIeYjWVWhiJfNuC4sUSd1zxtJMRbwKtg00NpFVuuMuM+Yry7o5de2i6kWJpi4KorPhxkrEwucGn2Si1Jq+Z/cr47L5SgNTQUW/qYOXJlCEnJehQ1TXsmBXNkuoutD+W8ovfXNgjNjg5k+rajTl/e74XGU5bJRT4yLrTQt0vOL6eg4TFUHZIp+bmVAcBj5klEhgzOHZXBRpR7WA+kkhtvw6kaemE6MY59a1HfruOhH5T/sUQcOhTnzs45ZmtT5rUlqm5uPbaCLHPxEMjUXzLAnNS7GuvL4zdxPvp73AajaRXjbSGBgchmbvxWeQlnyh0ZYVstwXFTtv66nW2h0gutT15BJjkNBmX4tA1wcY6MC+5netm5yxsVInRdxK1NnfhbMuGg2hyqXcGselEkCNyFC6zork4OWi2YOJuBRqknVlmmB4sm6kYXpjsAFdETYshRLY99x4f+Iv+9uXPjOBOVK34rp8MwXSd1PmNSnOy6CtBG0Zc2glTFjN+rENCXtIoGulOf2BY1X4+KouzHT/r4L03cK5/UR3L88qsMC1Lh/NXlgZbN24ST3pF8NlG/49m457nbnUrswn/tiRzsqgTmOcZFAU+L83NkmAi681H0jbN6/yaM3caJMaTounOQg+2qoSyBhtyKW40bTBZhxGlKvbjv1OGK+GC2C+OrlZdSbABft71BDD+cVKsv8pTVk3jW/6PuDriBlaAsFyVot/Lp5Dbg8L9yoqW+7GOCkrlyzxPnUPeHtgAvZurOdLhi1tChn2rpmxhs3DD7g7bhw1C4aLqDyi0Ors4fsaxemKrVqPjRenHfm1nSYs/MbC7iIW3eWaRe6WUPvF7HW+dATvt0F9DDivpVU0XTxc2ili0BTaqzNHuy1QbmqXLonvQ3jolXgGdRF9fsEZiSQrfOzH+ci9d7iYhO7Lnq5swwU8Xn9xottxNQLNVjVbaRVfU6uF6aNtDpFu15AG2n1sB31ovQrGG8uoaPZWTXD9J1H9w3oCLiahW/gUrIVVpzaX0BeIt6qiXnTBXQe7VVWq79QDNZSBugjbNe6NwAugtY21t4abA8vDIQm7O0uNsFLWp+b4wg4bs+hoCI6LkqW2UIys8aT56zOwEXrmmNoFTA6QplxZ3eqbjxvd2F6gtZU5WjNL2DoNGsY5LMzv7AYrWGEbaX+FswkOnY6DBhS+/D9HyiNSDo7q9DfneICSly4P4ZcmAWIcmGmIW5NNK93u6hWlbrQ8u63v4lx4ZycBPYOkVlQ8YUVZqrFKS6GUP6+3SzrVRfM5+5hcRDZ92sWuS+5MNuh5+xs1Wt2afVSc1NIZkyDtVpfWuV0b84+wYVZnURWf508maTAxQq2Xz2rWdY7SjjvdDKk+/z2fPUN4F5OjE0smUPVx1IxpdncBE329XbUKS7MQl80NmA213VS4MJM+/t+QwbuotZ7Ob9f2Z2wrhdn7fKhi76/1zlIVn7dHeNU57N5jc3hZldB+dLpbaTXuzXLqbjYmiuGdVJmzVPvjXgHKPvjI+5+GRcDn8fzKXawsP3ZHqVOcFHlIWRsfXOzjwMzjfManci23rcMmb++WTyoMMFPHkfK3j6udzLjpzRNH+NqnA3DyHKBO8SCsUWaFlxW9+rZLqrOO/TjfDc8LrfLaQ4zsYfeGZj9i0c1UFQb11hRQtEc0AZ1DjBM8EHX85FXXPR2uNkvPM/Tj6vuYaZbuxjj7mZ5QdhRl5n9TECP0BGvtualNBX6vEk4uPAHu7g5i1V3J+wBNHOm/VWBLDufj7zmopd2XGwDs3PcF1iy0ImKyk5t33xWlHx1E1JJnNNzoousN20+IKy6+bk7zRlKO8J/2va2QcczxFddlF6tbAo235jZdWOPZBvZj9d4nJmVinExkYFbQiK2B/4zXPS2n+P6MVEYyI6eeJw3InxWRYx99Z3sGFwcAnU4s118YepV1tjtWu5lvXwI9Z7DcabPbU6fi1l9QeHFedXVrtUVgz1EJJOA8YYO4QfnbufMm+vBZcol8wOfzR5W3fvqxyJQEXK21xHJjQYyMEk19jpxBUHWTY4WUl+sHAfUC+NCBRXWudvU01HSu9k2E2tMsoeFiFlQlULA4qfz9z3nztp4OcxW2ehbn2FYjrLV4PhDvo5eJTUdtRasblR1S8Nvr8LHw9UkvUmz0fc8G3BdXDLkAiEXCLlAyAVCLhBygZALhFwg5AIhF8g9Uz9pPyMXvV6m/9jB7pz9QYIgCIIgCIIgCIIgCOK/wR8m/eVIxxIQ5QAAAABJRU5ErkJggg==;" vertex="1" parent="1">
          <mxGeometry x="1090.75" y="594.32" width="210.49" height="149" as="geometry" />
        </mxCell>
        <mxCell id="Q6RhIF0yRRc2ql-Qrk2--17" value="" style="shape=image;verticalLabelPosition=bottom;labelBackgroundColor=default;verticalAlign=top;aspect=fixed;imageAspect=0;image=https://miro.medium.com/v2/resize:fit:646/1*gMiUPuRGC36nxZHe2zthOg.png;" vertex="1" parent="1">
          <mxGeometry x="287.18" y="1051" width="193.8" height="120" as="geometry" />
        </mxCell>
        <mxCell id="Q6RhIF0yRRc2ql-Qrk2--18" value="" style="shape=image;verticalLabelPosition=bottom;labelBackgroundColor=default;verticalAlign=top;aspect=fixed;imageAspect=0;image=data:image/jpeg,/9j/4AAQSkZJRgABAQAAAQABAAD/2wCEAAkGBxESEhMSEhEVEBUWFxUaFRAWFRYSEBgWFxEWFxYSGBcYHyogGBslGxYXITElJSkrLjouFx8zOzMtNygtLi4BCgoKDg0OGxAQGjclHyUzLS0tLSswKy0vLS0rMC0uLS0tLSs3Ky81LS8tLS0tLS0tLS0tLS0tLS0tLTUtKy0tLf/AABEIAJ8BPgMBIgACEQEDEQH/xAAcAAEAAgIDAQAAAAAAAAAAAAAABgcBBQMECAL/xABMEAABAwICBgUDDwoFBQAAAAABAAIDBBEFIQYHEjFBURMiYXGBMpGhFBc0UlRicnOSk7GztMHTFSMkJTVCU3TD0TOCssLSFlVjg/D/xAAZAQEAAwEBAAAAAAAAAAAAAAAAAwQFAQL/xAAmEQEAAgICAgEDBQEAAAAAAAAAAQIDBBEhEjFRFDJBEzNCUnEi/9oADAMBAAIRAxEAPwC8UREBERAREQEREBERAREQEREBEQoC4ppmsBc4hrRvcSAB3kqIaW6dx0xMUIE0wyOf5ph98R5R96PEhVdi2Lz1TtqeV0nJpNo2/BYMh37+1WMeva/fpVy7VadR3K3a7TzD4sum6U8ommQfKHV9K1UmtGmHkwTO7+jH+5VSisxqUj2qzuZJ9LZg1n0h8qKZnbsscPQ6632GaW0U5DY6hu0dzHXjee5rrE+CohYIvkc+zguTqU/Dtdu8e3pMLKovR/S+rpCA15lj4wyEltuTDvZ4ZditjRrSaCsZeM7Lxbbid5bb7j2t7R6DkquTDan+LmLYrk6/LeIsBZUKcREQEREBERAREQEREBERAREQEREBERAREQEREBERAREQEREAqvdYmmBivS077PI/Oyg5sBHkN5OI48ARxNxJtL8b9R0z5RbbPVjB4vIy8BmT2BUVI8uJc4lziSXOOZJJuXHtJVrWxeU+U+lPazeP/Me3yiItBmpDoRgMdbO+KVz2BsZeCwtDrh7BbrNIt1jwU49a+j/jVHyovw1HdUnsyT4h31satxUNjLet+Ilo62GlsfMwgnrX0n8ao+VF+GqqnaBJK0XsyWZgvmbRzPYCbAZkNv4r0evOFV/jVP8AM1X2qVetbJa1uJl52sVK05rD4XPRVkkL2yxPMb25hw39x5jsXAiuzHPtRjr0vPQ/SRlbDteTKywlj5G2Th702Nu4jeFvwqB0axl1HUMmbfZ3SNH70ZPWFuY3jtAV9U8oe0OadprgCHDcQRcEeCy8+Lwt16auvm/Ur37hyoiKFYEREBERAREQEREBERAREQEREBERAREQEREBERAREQEKLBQVJrYxIvqWQA9WFgJHv5MzfuaG/KKhC2mlNR0lZUv5yvHgw7A9DQuDBGA1NOCAQZoQQcwQZm3BHELWxx4Y4Y2S3nkl0rpdeg/yJS+5ofmmf2T8h0vuaH5pn9lX+sj4WPorfKstUh/TJPiHfWxq3LqJ6btFHQzT0jWU0oMLRLHHGHhr6mJrhm0g5E7wqz/6vxT/ALhL83S/gqKaWzWm1U9bVwVitpXwvOFUfz1R/M1X2qVbyl0uxMvYDXyuBe0EdHTZguAIyiurlOC0pJJpoSSSSeiZckm5JyzJOa7XnBbm35cvxsV4rPp57ul16D/IlL7mh+aZ/ZR/T/DYI8OrJI4ImPbC8teI2BwIGRBspY24nrhD9Fb5U4rh1W4n0tH0bj1oXlnbsEBzD3C5b/kVPqeaoJ7Tzx+2ja63wHkf1F72a84+UerbxyLWRYCys1qiIiAiIgIiICIiAiIgIiICIiAiIgIiICIiAiIgIiICwVlYKDztiTSJpgd4llv865cuBeyqb4+D65i7um1KYq6pbawL9sdokAffzuI8FrcOqBHNFIQSI5I3kDeQyRriBfjYLXjunXwxJji/fy9FIq69diH3FUfKg/ET12IvcVR8qn/EWZ+lf4a362P+zda0P2bP8Kn+1wql1aUePxY0yWhEU1LdrJOld0Tx+bqInbIDXk3J+9cXrVs91v8Am2/3VjBeMXMX6lX2Mc5Ziadq4ov8SP4bP9YXo1V3DqvY1zXeqnmxBt0beBvbf2Lkq9aULJJY/Uc7+jkkjLg6EAmORzHEXeDa7SvOa0ZZjw7d16ziifPpYCjOsn9l13xEn0LQeuxF7iqPl0/4i1WlWsNlXSVFMykmY6WNzA5zodkEjebPJt3KKMV+fSec2P8Asg5Uy1TtPq1x5QPv85EoaVYep+lO3Uy8AI2A9p2nOHm2POr+eeMcszXjnJCzgsrAWVltgREQEREBERAREQEREBERAREQEREBERAREQEREBERAREQVlrcwrOKqaMrdHIeWZdGfS4eZVyvQ2L4cyohkhk8l7SDzHJw7QbHwVCYth0lNM+GQWcw7+DgfJeOwjPzjeCtDVyc18fhmbePi3lHqXUREVpUTbVL7Mk+Id9bErcVR6pfZknxDvrYlbl1mbP7jU1P2xedcT9kVX81V/a5V6KuvOuJ+yKr+aq/tcq96n3S87n2Q66Ii0GaEq8NAcJNNRxtcLPfeSQcdp9rA9oaGjwVcav9HjVT7bx+ZiILr7nP8psf0OPZb2yuloVHayfxhoaeP+csoiKmvCIiAiIgIiICIiAiIgIiICIiAiIgIiICIiAiIgIiICIiAo5pjosytj4MlYD0cn0sdzafRv5gyNF2tprPMPNqxaOJedMQoZYJHRTMMb272nlwcDxB5hddX/jmA09WzYmYHWvsvHVkaebXDd3bsswVWeOauqqK7oCKlnLJkw7wcneHmWhj2a2+7qWbl1bV7juEbwbGJ6R7pIHNa8tLbubtixc0nK4zu0LceuDif8WL5gf8lHaqnfEdmVjojye0sPpXEpZx0t3MIq5b0jiJSj1wcT/ixfMD/kow97nOe9x2nPfI9xtYbUkjnusOAu4r5JC7+G4RUVBtDC+T3wFmeLz1R50ilKdx0Tkvfqe3RW60X0bmrZLM6kbTaSYjqt96PbPtw4XBPbLtH9WZyfWPHxEZPmc/7m+dWJSUrImNjjY1jWizWNFmgdgUGXZiI4qnxakz3dw4ThsdPE2GJuyxu4cSd5cTxJOZPau4FkIqDRiOOhERHRERAREQEREBERAREQEREBERAREQEREBERAWm0sx4UNOZzGZQHNbsghp6xte5W5UN1tt/Vsh5Ph+uaPvQbDQzSpuIMke2J0Ww/Z2S4Ov1Qb3A7VISVXGpUfmJz/5f6bF3tY+mXqVhp4HXqJBa4zMTXbnW9uf3R49hBpDrJhpqh1OyF1SW2DnNcGgPvnGBY3Iyv2kjgpfhVU6WJj3MMTnC5jJ2i08rjf/AHVeau9Byy1TUi8hzaw5lvaff8zw71ZrW2Fhl2cEGUWLrRYjpjh8DiySqjDhva28hB5HYBse9Bvliy1GE6UUVS7ZhqWPd7S5a89zXWJ8FtwUHxLE1ws5ocORAI9K10mjdE7N1HTk8+hjv9C2hK1GLaUUVMdmapYx3tL7Tx3tbcjxXYmYcmsT7c9PgVJGbspYWHm2JgPnAXfDVo8O0yw+dwZHVRlx3NdeMk8htgXPct7dcmZn2RER6ZRdOvxWng/xp44ePXe1mXPMr4qsapo42zSTxsjeAWSOcA1wIBBb7a4I3I676KNR6eYYTb1WwdpD2t+UWgKQwTse0PY4Pacw5pDmkdhG9ByIi0lbpdh8RIfVxAje0OD3eZtyg3aKNM09wwm3qtg72vaPOW2C39JVxytD43tkadz2uDmnxCDmREQEREBERAREQEREBERAREQEREBERAUP1s/syb4UH2himCh+tn9mTfCh+0MQVxotpn6hpJY42F073kscbdE0FoG0c7uOW70qR6tcCgqC6sln9Uz3u4E9ZjjvuDnc+23cBuuePVlgNPV0czJ4w/8AOGz90jeo3Nrt4KjuJ4fV4LVtfG4lpv0ctupIzLajeOfMdxCC+GNAAA3L6Wo0Zx6KtgbNHlfJ7CbuY8DNh+48QQVtigrXWlpNKHtoKYkPeG9I5ps/rmzIQeF957COZXLgGrCmEbTUbUriM+s5rf8AKGkZd9z3blBMSrZji08sUfTSNqJQ2Mguv0ZdGMgQTZrQfBSr/rPHeFDEO+Cb8VB1NYGgkdJEKqlc5rWObtxkklt3ANkY7fk62R5ggi2c21baQOrKQGQ3ljdsPdxdYAtf3kHPtuoPjGNY3VQvglo2BjwA7Zic12TgRYukNswOC3uqPDZ4BO2aN0W0QQHWzsAL5IO9rQ0qdSQtihdszS36w3sjHlPHvjuHieC02iuraJ8Ylq9p735lu0RYnOxINyeZJ3+cx/WVUPdipAbtlnQNYzMgmweG243c8rdM0xxwABtDEABleGY/1UHJprq3gjp5J6XaaYmlzonEva5jRd1r5ggXPLK3atlqk0ifPE+nlcXvhtsPJu4xm4DSeJBBF+VlparSjHZGOY6jj2XNLTaF4NnCxteXtX1qpwapgqnulhdG0x2BdaxN72yKDk13042qSTslafAsI+kro6K6BvrY456id+xshsbWkXawZBtyCALcABv33JW812s/R6Z3KYjzxOP+1b3Vi++HQeI8xI+5BoMR1Swlh6Cd7H2yD7OjJ7eI77+CiuhGPTYdVmmmu2Iv6OWInJj72EreWdr2yI52CvRUZrfhazECW5F8ET3H315GX+TG1Bd8guCAd4Oe/eN6rqm1SQDy55X92y0Htts39KnWBSl1PC47yxt++yiekusynpnuihYaqRpsbO2Ig69i3bsbkdgPK6Dq1WqalLepNKx3A9VzfEH7iFEtDqufDsT9TOd1TIYpWDyHXHUkA4HySDyNlvTp3jEmcNAxo4bUcrj5y5v0KJwVE02KsfUNDJnTRl7AC0AhjbWBJtkBx4oPQAWVgLKAiIgIiICIiAiIgIiICIiAiIgIiIChuts/q2XtfD9c0/cpko1rAwaaspHQQ7O2Xsd1yWts03OYBzQR3Uof0ef43+m1TLSPA4qyB8MoyObX2u5jv3Xt7R6cxxUf1aaPVFFHMycNu5+00tJcLbLRY3AzyU1QUFgWJ1GD1r2StOyDszRjc9l+rKzmbHab2GxtfK96SpZLG2SNwex4Ba4biDmColrE0PNcxr4dls7MgXEta+MnNjiATkcxlzHFcerrCa6ja6CoDHRX2oy1znOY45ubm0dU7++/NBAdLo5MPxZ04bkZOmZyc15PSNvz2i8eIPEK5sFxSGqibNC4Oa7ztPFrhwI5LqaU6Nw10XRy3BGbJB5bHcxzB4jj6VVsug2LUby6leX+/hk6NxHvmuIHhcoLrSypgRaRv6pdO0fGRN/0G6n+gGHVUED21T3SPc8uuXukOYAttOz/AHR2ZoIBrcw98NbHVNyEgYQ7gJYuB8Aw+B5KzNEdIYq2BsjCA8ACSP8AeY/iCOXI8V3cbwiGrhdDM3aY7wc0jc9p4Ef/AGSqev1dYhSydJSSdIB5L2PMM9uRG7027EFzLKpYM0kPVvUAfDhB84N1MtXmFV0LpX1kjnl+zbakdIRa/tt2/hkg6euv2JB8ePqZFstU5/V0XwpPRK8fctZrrP6JB8ePqZFGdFsOxZlNHPQTbUb9ragJabODiPJeCLG17ggoLpc4AEk2A3ncLKhdIqj8p4mei6zHObGxw/hRjrP7idsjvC3VfQaQVgMc142He27GRnv6O7iOw5KXaEaEsohtvO3Kd7rbh7UDgOPgOVgGy0oldT4dO6PquZCQCP3SRba8Lk+Cr7U/hUMsk0jwHOj2Q0HeAb5jvOV+w81bdbSsljfE8bTHtLXN5hwsVUNZoBiVHKX0Mhe3PZex4jl2b+S8HI/QeQ3ILiZGBuAHcFSuLvH5fJuCOnjzBuL9CxtvPktnDgePVHUnqnxMO/rWdb/1gA+LlxSat6qGqikg2HxsdE4lzz0hLXAvyDbZ2Nu9Bb4RfLDkOC+kBERAREQEREBERAREQEREBERAREQEREBERAREQEREBERAREQEREFba7n/AKPTN5zE+aJw/wBy3Gqc/q6L4Uv1rl3NNNEm4g2MOldH0ZcRs2sdoAG9weXpXc0UwP1FTtpw8yBrnEONr9Zxcb2A4koNyiIgIiICIiAiIgIiICIiAiIgIiIP/9k=;" vertex="1" parent="1">
          <mxGeometry x="599.24" y="694.38" width="275.24" height="137.62" as="geometry" />
        </mxCell>
        <mxCell id="Q6RhIF0yRRc2ql-Qrk2--20" value="" style="shape=image;verticalLabelPosition=bottom;labelBackgroundColor=default;verticalAlign=top;aspect=fixed;imageAspect=0;image=https://infiplex.com/utilities/file_library/img/integrations/amazon_sp-api_logo_558x234.png;" vertex="1" parent="1">
          <mxGeometry x="604.24" y="550" width="275.76" height="115.64" as="geometry" />
        </mxCell>
        <mxCell id="Q6RhIF0yRRc2ql-Qrk2--19" value="" style="shape=image;verticalLabelPosition=bottom;labelBackgroundColor=default;verticalAlign=top;aspect=fixed;imageAspect=0;image=data:image/png,iVBORw0KGgoAAAANSUhEUgAAASwAAACoCAMAAABt9SM9AAAA8FBMVEXt6+7t6+/t6+zu6+7t7Ovu6u/s7O3s7PDv6+zw6u7s6u3s7PHv7fDs6vDz8fPs7e3z8/c3Qk7k5eruqSnxx4Hpq0XzqR7uqjb46Nc7SVWcoqjGyM7e3+KRlJvX2Ns9R1Xnu3b14sTqxIzv5dfmpzb17+mAhI3w2bTuvnXsuWl2fIEvO0b07uTmrk3sr0H01bBWXmhgaHDuxYjszZzz5c3rqBfypg/mtl7tzqT34b6ztLuNkZmurbHxyYzp3MbxzZfx2q1ocnkxPET94tLjsEpLUltCTF7416bmrC7p0rP28eL237rlrlzz1JT96s8mMT1GJ0w9AAAKqUlEQVR4nO2aa3PaWBKGde4S5+hmARJgg0EWCCNhGysBXzB4JiTjxJP8/3+zLTyumdna1O6HKePa6ie+qKQjLL3q83b3USwLQRAEQRAEQRAEQRAEQRAEQRAEQRAEQRAEQRAEQRAEQRAEQRAEQRAEQRAEQRAEQRAEQRAEQRAEQRAEQRAE+Qch1JLwi1Jy6Ct5U6gjGkRQSn9ynCnFGIHDlDLhsD+GccoUE0za7s/O+79EOL6h8qdagZpSSWITKQVz9auoymVUKe04Ur7Vhb4LSHq94j/XSlLdcIiijBBVVdy1X07iblYVGuJNvNV1vge4Hn5oFbX1/Gf7IUKBQraktkrLsyezl5W43GnGI5u57C2v9eAQNYz2YpGfeLUggl+PCpeqKv54bfajKJHZ8uOSc+q8U4fX4LHUprRBrAZscqkaVEoJbkKYdN2GzWxmuRIePbWYo+AuGDMWNcayfO5LCSc6YNWMC0sxSwi/TmXE1rVYcBpRCpIbfCyMcR2qOLE4ATfztcjKs4T4OrtZpQocHQaB0VXXlWgIoSz4xxjTnApBbUtyKcjhjQxSUsN4NayhYYOawDPcBIFXzwUGewKPKFnv3tMAbWFXbd6+53HY1iA1J9IYx2jJjS1dY4S+AbF8MGuqQRBpiFZZlhnCLaql5WohVTGfp66xXeVprnyPZ7YrHe0bXxulDc8y7XObu349VrjEsg8fbnCnQW98dTXueZbpnXTV7fm4H/TH5114kL5/e351ddc31Ls96QIn954J+nePMJrS4273GAbee7ZQ6WSd54tJ4Tqaf2vm6yFEVrVZ2ZDyNJusH+TXzXQ53STaGo7SYrtYZd82cbxYj1J+vUm1GZ6W5XRTyMnoST1t0mSVl8tRqonOtqf5piq2D0ocXCxm06A7C2dhZ3bvwVbnZNbphL0w7ITnHg0eZ4PZoPNL3wTnszAcDMIrL7j/EYbh7C6we7NZtzMYzE4C92vZjuK4HS0yXTSjdhzFZVR+n0dPvlNbePQwLKPWch49p26zvc7bH5e/nkVRBGc8Fa1oordx1CphI1h8HHnNaPrpt1Yrqj/t6xRGRWfT6DSD5HlosZjpzwZXPbjrnfK6INSuU7MbdGZH3v2sM+6NO53zwOuen4/h0NjrzzqXt+eD2a3XCz/vdrBv55JstK3S6kscP6gv7dZFmn55hmm4aC8cQfxt9Az3PCrsJG+DFO3flpuLJ5Ns47NtVdlZGT9ly2iVZUmV+s39iNa6yr6uo7PUXrfLi6T60opOjSDvQKze1a7vBY+DwbHXHQxOgl7Y2R0Hj51Z3+teXXqeGgyuPPAmOACCBuNO2Pd0OLgMarFkcAknOqpwLfDqafT0tYRAUdIFz+IwFVOf8Ga0+hZNubb19/g5W7RPbW2EdKt4nmpXFmU8LMqzyvVdMHMQyzSjRQC+Vc3jNJ3Dp1lK/w5iOfrQYkGSAxlUv3fVqcWCGegdhYPHwDsBsewgCI76t7VY4F9Hu/qof9kJJQOJwkY/HNx5Hoh37DhKZtz28g9P3yOQgMo6G2YQMBOtk1Yr/T3agL/z7/MyW7dHyiKS6CQ+S4mwijJ6Mnl7OiyU4n4zqiNrZCC3JiBW/SnMInoDYvGDRxZkQ6//GP740fn8h1g2iHXuBS9i9S5nP358BrE4Dc4H4YnHfZij0gRXn2d9EKv7Ipblp5tl+SkHk/rWXhaKkH3poFftUwPzcuHl0bw1h692HVm1WNR6FetrGU/UEDxveZ3Kv4t1Vm2jJWQgqt6JWA37OBx0uv3HQVhPw1ex9pHl3db+1Nt1YBoGt2HnUnJHDkAsFjz+TSySLNtlnk/jaLIFPXz/JbJkMm+lPI8edB5N1+vRer1evYpFyF8iS+nkehm1y2Hw4lmvkZVM2ksu35FY3h0oFIBHDV7E8l4jC6wJ/OjIU7VYfj/sdPpBwDyYjBBZl59nR3+KZTbRtDC+nUdP+4iyX8SiYD8Xyfw5081oE/i2MsYn/yYWAc96kg7xs2EOyizaf4us2vWE676XaWiDTLVj7+qf3fBVrH1kNcDBAw80ufTU1aADuW/cr8XpBWD6tcG/imXn7WvtuhBET0kLLMhVe7EEND3TLx9Wmmxhcmq4W6U5SKEk3DepQCztqlosLV1N3SSeZ69ikX1kVcWn9gqaCm/9LsSCkhRKg3H/HEqG86D2LHMUdl6n4e5z2O1dDnbhfWMAFRUUX6Hfm3WuoJzYlw4gVjCG+Wsv2nnmFVsQCm63HGbZcApicZItY6jThUjK9qjIeJakBgxec0kcmsTxqkgKEGsih0XmeduohFIBsmF7JMD2arEgpOLF5ALm96lN1aH7a2qb3gwKy9ldXWd2w1nPP5qFkA3vwh99KFIHIZRaYXh7NNuNu93xbtYITmBnODt/KUp1MA5nx2J4FpXT8mwOUZQsoSItoShtZT5TXyLweGgLt2ft1nRaxqcelJ2KMwea5mY7np+tMqg10rPWNIfzLoLmx4XX/DhyfEdXcVTpbP1bu/1hmUenHvSKBxeLBb1zaHaC2/vA9MbjvnHH43vPux2Pj2lw/3h1dxyc9DzZC7ws84IeZcHt4+7xNrDt/nh865n78fhIyW/TT+VpdZM/EDdZLz8tV8moaStHJs3TSnNBTNUsW/NPi1/VKp9AW+xYMO02y+f8Ift9UfHraTkvpxPjX+RPAr6NFjpbLFKismq1GnrgWd57KLMcqaBrtqn2iqxunwUJPG2xuvqitG6xYZsrkmym5TJ/EELUhwJj29Bb17/gJ+PUhTJKa659m8B3xjQUo5oRaKqlZowQokxWFBzypBLGJQr6YgFdtPGN5UJ9pW04alzGfQMnSSitLOlalqDKlfCxMo/Axg6/IgjdqWS0YVGmJqdPXBNi0QY8QxsuGnIVl/VKHXXTUXO9nkYrJQSMB/+gVMI5tXbUEVBkWm699GBD5+wwyhwGpkQJFCbaZrYjCbMFnMAdobiSVDggH5O+4JwyiBhicR/CjQvKLcJtn9db9dKgxbkP2eL7PB5q6Rx6GtZiNfbxzYi5KZcXmdICni0UN5QzxiS1qA+Bo02WZDfRBJpZKinbv38hIEe9uAfjKdyHIr4lLLhz2K9o/TaCWPvlddDbsZRVxxccIzAAxNqfLRSjrg8DoIWEnfW62H7BEJ4Sq9fpffd6ej2ZbMrotHAJPbhYf8KlrvKoHA0LrZWG6VLft+U60LuAUl+W5cO2lb7pFbm2mtSLE9HZaaEdIQ++RvMnUtqaX5RRVC62kMo5NVob7kO+n2wgd+cJzxf8bV/pOb5Jblari8pozt33tNhMobZRqlhB3xHFrWW+GG02m3W+LOOoHec3XFfPyduuKXFXEN/3jVbgcu7Ba9K/ArlIukT62U2zFf2V+HlTZa5rPzz4cMlveEWCSSFdx7aUlBb45HuKLAEJB/QSyi6G181p2Wq1ynK6uKgyHzI4t5h21JsuhFMhoXXXFmTg+kW147zh3/6fgdkInl6kSVJkMAfUO3qi7xAp6/yvBYOsjkr9NygUg1JB2Xn4d3XvHjCJ+n+42LZz+Bbj3UP3PsXqYvzQl4IgCIIgCIIgCIIgCIIgCIIgCIIgCIIgCIIgCIIgCIIgCIIgCIIgCIIgCIIgCIIgCIIgCIIgCIIgCIL8g/wLoy8qEg5KChwAAAAASUVORK5CYII=;" vertex="1" parent="1">
          <mxGeometry x="604.84" y="364" width="269.64" height="151" as="geometry" />
        </mxCell>
        <mxCell id="Q6RhIF0yRRc2ql-Qrk2--21" value="" style="shape=image;verticalLabelPosition=bottom;labelBackgroundColor=default;verticalAlign=top;aspect=fixed;imageAspect=0;image=https://hustlelife.net/wp-content/uploads/2022/02/Helium10_main-logo-image-1.png;" vertex="1" parent="1">
          <mxGeometry x="606.79" y="1140" width="266.66" height="140" as="geometry" />
        </mxCell>
        <mxCell id="Q6RhIF0yRRc2ql-Qrk2--22" value="" style="shape=image;verticalLabelPosition=bottom;labelBackgroundColor=default;verticalAlign=top;aspect=fixed;imageAspect=0;image=https://d1rlzxa98cyc61.cloudfront.net/catalog/product/cache/1801c418208f9607a371e61f8d9184d9/1/8/183814_2022.jpg;" vertex="1" parent="1">
          <mxGeometry x="14" y="726.64" width="213.75" height="213.75" as="geometry" />
        </mxCell>
        <mxCell id="Q6RhIF0yRRc2ql-Qrk2--23" value="" style="shape=image;verticalLabelPosition=bottom;labelBackgroundColor=default;verticalAlign=top;aspect=fixed;imageAspect=0;image=https://1000logos.net/wp-content/uploads/2021/05/GitHub-logo.png;" vertex="1" parent="1">
          <mxGeometry x="1503.67" y="1110" width="293.33" height="165" as="geometry" />
        </mxCell>
        <mxCell id="Q6RhIF0yRRc2ql-Qrk2--24" value="" style="shape=image;verticalLabelPosition=bottom;labelBackgroundColor=default;verticalAlign=top;aspect=fixed;imageAspect=0;image=https://media.licdn.com/dms/image/D5612AQG_qZMMQLO7-Q/article-cover_image-shrink_600_2000/0/1676926985196?e=2147483647&amp;v=beta&amp;t=5ZFbE26yiX5gJK9fQ6YvvoiNDjBjTei5MLNXtC0A6VE;" vertex="1" parent="1">
          <mxGeometry x="1950.51" y="451" width="318.98" height="179" as="geometry" />
        </mxCell>
        <mxCell id="Q6RhIF0yRRc2ql-Qrk2--26" value="" style="shape=image;verticalLabelPosition=bottom;labelBackgroundColor=default;verticalAlign=top;aspect=fixed;imageAspect=0;image=https://requests.readthedocs.io/en/latest/_static/requests-sidebar.png;" vertex="1" parent="1">
          <mxGeometry x="311.15" y="539.64" width="145.86" height="187" as="geometry" />
        </mxCell>
        <mxCell id="Q6RhIF0yRRc2ql-Qrk2--28" value="&lt;b&gt;&lt;font style=&quot;font-size: 25px;&quot;&gt;Data Sources&lt;/font&gt;&lt;/b&gt;" style="rounded=1;whiteSpace=wrap;html=1;fillColor=none;strokeColor=#82b366;strokeWidth=5;" vertex="1" parent="1">
          <mxGeometry x="550" y="141" width="370" height="80" as="geometry" />
        </mxCell>
        <mxCell id="Q6RhIF0yRRc2ql-Qrk2--31" value="&lt;b&gt;&lt;font style=&quot;font-size: 25px;&quot;&gt;Data Preparation&lt;/font&gt;&lt;/b&gt;" style="rounded=1;whiteSpace=wrap;html=1;fillColor=none;strokeColor=#6c8ebf;strokeWidth=5;" vertex="1" parent="1">
          <mxGeometry x="1007" y="141" width="370" height="80" as="geometry" />
        </mxCell>
        <mxCell id="Q6RhIF0yRRc2ql-Qrk2--33" value="" style="shape=image;verticalLabelPosition=bottom;labelBackgroundColor=default;verticalAlign=top;aspect=fixed;imageAspect=0;image=https://avatars.githubusercontent.com/u/2947270?s=280&amp;v=4;" vertex="1" parent="1">
          <mxGeometry x="1111.24" y="1017" width="190" height="190" as="geometry" />
        </mxCell>
        <mxCell id="Q6RhIF0yRRc2ql-Qrk2--35" value="&lt;span style=&quot;font-size: 25px;&quot;&gt;&lt;b&gt;Data Storage | Code Repository&lt;br&gt;&lt;/b&gt;&lt;/span&gt;" style="rounded=1;whiteSpace=wrap;html=1;fillColor=none;strokeColor=#FFB366;strokeWidth=5;" vertex="1" parent="1">
          <mxGeometry x="1464" y="141" width="370" height="80" as="geometry" />
        </mxCell>
        <mxCell id="Q6RhIF0yRRc2ql-Qrk2--37" value="" style="shape=image;verticalLabelPosition=bottom;labelBackgroundColor=default;verticalAlign=top;aspect=fixed;imageAspect=0;image=https://helpdeskgeek.com/wp-content/pictures/2022/11/preview-media-01-Google-Drive.png;" vertex="1" parent="1">
          <mxGeometry x="1510.33" y="796" width="280" height="140" as="geometry" />
        </mxCell>
        <mxCell id="Q6RhIF0yRRc2ql-Qrk2--40" value="" style="shape=image;verticalLabelPosition=bottom;labelBackgroundColor=default;verticalAlign=top;aspect=fixed;imageAspect=0;image=data:image/png,iVBORw0KGgoAAAANSUhEUgAAAT4AAACfCAMAAABX0UX9AAABHVBMVEX///8kHyEkHx8AAAD7rxclISAjHiAiICEhHB0kHyP7+voLAADw8O8VDg+KhoYrJiatq6kaFBRsaWiOjIzi4uL39e4eGRnEwsJeW15QTUwpJCiZl5f5sBm4tbQZExZ8envU0dAOCgc9OTj4w2MNAAYcFxU2MzTp6elfXlwgGh8YERe9vLytrKxaVVfV1NT20IpnY2B2dHOioJ5GQkM0MCwXEg3258n89uf679r/+eyCgHxKRkIrJiJZVU/Lx8t3dG3e2tM/PD9oY2YjHxcZDxuFgnazsaqal5n+4K/51Z300Yv9zX7x4LTxuTX7tiX5wVvvtEPzx2z22LH11IX83Z7yxlv0th/xuT33szb+6cD3wWTxsj39yFz5sgDyrCI3VqgcAAAVQUlEQVR4nO2ci1vayNfHSSJprmAgJlIghDTcRFDA22q1t919tdaqu10v7er//2e8M5O5BWhFhfa3zzPf59mtDElm5pMzZ86cTMhkhISEhISEhISEhISEhISEhISEhISEhISEhISEhISEhISEhISEhISEhISEhISEhISEhP4HZFiuXx0Oy9Wu2zJmPMF1rfFDrZb7wPktt19dLqN6rCe3lmsGqBC04zFHz6Pa9FXD8uZBXVHMOFYUp1kotyYO6fuJwoSNWy6MsvLrUWGdY9Va3z94/eFDtFl2v1NRf3kwAlWYdVNRlOZhrj9B2uouf1f98YNb1f3NUl5Tt0pvypOXylghbPHR0RFuTri/GclyvjRYnydBazlS6o4nS5KqSqoueY6pFML0MVXFTKQcgmZab9biwNM0zVtTmkPcFqNoxjYqDGKzMA1g91CJ1zqqJGmyls3KWmArB+M9GSn2d2WmL+rWtk078FQVtiNWDpbHbrobKTFscqxswRPf9pS1NU2WNdC//HCmETaLwgPTk6EkLPh3EKctcH9bVdFBmmRlWiVbk9AJsqp7nRxqijWyVXoFNcgvT9TzxrM1XZc4ybLnHaaZKKwdE1J87kCjljdVeh1ZVrX6yE9dyldU9I2s2uCLt9EaORTI/GNO9IaOkwWmwOGTwEe9s3bI20XOxvVqecto26qa4FOBsWprQ0ivzehJqqR38t0xept1cEIKny6Dmu3Nt0/B1yqAOwkbgJS0zdtO3bOqmRRLauBn3h4GKsOnauZwPvSUDzLCx1oJPmZBw+wCZ+AJPvAlwFdWcDsQAl3WGmHGyCnprsqenjJf33ZgJWnrgzVltw/4+zQjPmNQ545DSMDlNYXnl+CDjAPfKNkfsvy1NKU6B3rLMa6ZNEZOegXBxOVp+N4dvdTS+GRnM9MdpydLwXuunn5eQ4XSJD45zs2GT2f4jIGtkeN0ik/XtTrHr2rLSU/U4GhoS9kUPuA2vje/za5WU5MYOuD2+X6pa8wscjY+ThsVglQ7AHBNXW9q0lihpCrM/KzSGrpqMnrljqZiG5dQ78IUPvbN9/AZZZPUJ8t6MkIT09ZkZqHVOuoGuJZWRf1MX463jqfJysXUjKROIyo19Q5nFiazb4pPzU/pmKZqU0q506u2nuDTdb1j50uj/DaweAIpzjE38QN8kkIwd1/TwSJrtufYngy8Mbo1TqnPKiX4Xq5q9K5SeaXn4uszo1GD0brr9pdLnorpZaW1fQ5fanKRVCkllUDnC9npxqGTfA864IyGvuv6g6xGr+eNmJ1uNag8IFaPLHkRCZEOGvhUXe4096vVWuSpmqom/XgziY+gTnfBnIxuH6dhQJqnZYeJK3DfrOlZXG3Qm4IPmlEntk0Qu6QZql69bnP9lYJNYlSh9wJaBrS+YDOpxyjXmdOQmRuq9tpEq6vt1SYLhrSY+LXlDx7B1+iF8GJHpUBN8MlanZgfG7zJTap7dZsfJeZEGP44WYUgaYSuZ+lAM0oeub5u00FF8QEMst0b+n75Q0PljE31zMFyt9zeVunk0BmR04vBC2x9QY1estCgpuCkAzamagfjA7V2evhUa6uBIwU16GELcksNcjeCATnZZM2Ts05pOfSL+YCV2d2pdc6OL/IwvjUuSAGTFMGnTOIDHYmTkMkdeRw+Lx8mZysUitYkg+2Nk0X0slqT2VmYp6bQWJ/ewC47RNJ+J6eu12mgFVMD8qkxd5qtSXxZcx/1pTXyyO1VnWfOHVakBIGmdTq6GbLSvkMGjE59NYdPdkic8ef2B+rBNZV0pEDvLwgRkyLjjQJWc2A9J8dFVk9LprFHY3pH3FGH9l/1aEjyvkHawsVGRokcq+Pbm8JnEz8cKjqp1X7u1BsOa+1R1MybnO/OtPI/xlcnhW6J9a5DuayvTeDLvB3mCqVRU7Y9ekFw83oNYr3fwVezddwUWbbpKsFS6BpJ4ayW3jZ9bTMp4fCpHu1gneCTbe5ePlmtt9XlHO8FWnmNjFMeH2mJNyJQDFYod+iR3Sn4UK9b3WGRz88QfGAkTsfn5+ESGa/HDuio75uYqCyz9mGfA2cKvdNMaoGrDkzUZqHRYYeM3rngm9AD+IICPXKd3l7GNOPSwjS+CVk9B+PLTsVnlAKCSc42WAy5Huuk3OQqqMYYn6xjG69Sd6hys0Q51gnTBeCzrP4D+Gr02K5K5kU6K2YyK3T59kN8htUvNaQf4Sva1MrkbW6BXwtIOXfTwG1TUOQHg6M4Yc3h4yKj9Zj6vjniMyy3W87VCqVIo+HldHysUv8lwRcUZsVnoEFcK/RG+WwydXwH3zJOR8HGOIds0Bs9hq/E+QK3g/FlCReGT8uzAym++Vmf9Wex1zRjOwgCT1PpMm5WfLI8Iz7LLxbypmnbsB5Npum6YBJfGNFVraRucQGuhb+ASckBdwJYvsv4dmD/wnyf1mTHdU0yYc0JX6v8YdsOIDYprQfx5Qk+ZwZ8hlXuSNuOJ4+v3UH0O4kP2Bihq8p8Py2bns65YdCLdzRGxKtZNvPyy9uuOdfBa5S36h9UlHd8NL6Xj8Hnr5ow7ZGVYGoklfebgm9ITVOV7HZqBmcprTS+iOGLUMl0fNW54gtVMzE79QnW9wh8bltZo8z0NL9JfH1ucepthfxXM+DTtjCoafjW54mv6wQ4hQkz3l5gxzEFNR2f8yR8btPO4lQzcO6dNVgPXVtP4LNKDoltZS1Op4VnwWejkmp90fi6EkuRaLbTHuSG6+UsLXoI38y+rx/RFYaU3d4+GBSXl4erZNEyga9IQ+9sVimmH4rNgq+BSqr1FyhT8eLFgvCFUUA8nqrlaz7qbout0+eGr8f8fUfeT+qxemSZNY4vlNnIDsaTmrPgy6OSReMz3nh0uvDok7EF4PM7zMbzZVwKFm0kqk3jswpk6AKPYo/nsmaZOkaoZNH4wi2Kr8GekbZez4xvRt9nbLJ1sEwTJ8D61Kn4htv0pqr2fmZMVoMmagIummb4dP0n4etpLNnM/HPr9cy+b0Z8fh0lVuF0yxInAB+ZO9L4woaXxAAgQGyMJhYuxgGdclg+FjZ7i+CTnDYqIfgWNHW47+iY4uN3lrCaF74tDSeq9Q6XLm1JxMpT+N5GDkmNyfxzM6oBTSiqfGTUoukVkshbMD4/ph6af35fZZHLfPAZW1oW4+Ny9ZkWfdCSwncQ0MyiLE9LJbA8j6Rw+Pokza2zlMFC8VVNZmbcorK8RmfJ+eDzzSyxvpjLnIQvafVcKF7+/QWHr+nUXx8Ouq7BjVK26pIULk85tElopMpvk/4tFl+RIlFVDh8bHPI4vhdAT8DHHjPx+MoBXXnYdJ/BivQii9GhpZAGd2w5+TYOdqBchWLnPCnoDX1wF+F06WKnDlahxD3raNGoWc6u0SQtw/f4RVuVPWbiHi8Yh/ShDTeF/mFLPD6ca9Ya29koR9wmmzucNq0WJ1cRFjxbLxhfjuGL2daQYszwdaIWPfaZ+JIij/W3uw33RSUE1cafSWHLVBk2ii9J7tWzg+R6Zer8ZLbjzyeFWZnYwoLxDZkT8UqkHaHHFvOybhJreQ4+n+DLZtU8maPcyJPYvi5vKzk0BDExSmGP4UP/amYy8bg0rpftHInBVx3yPLxBblHXXCg+n+FTnTdJnWHU4VIhsve6yuODejw+N08TmZKNd0O67W0EBmdeiFOESRK6DQ9fm2HUtpLBsEm2MoGiZEXcws/c4bMO709yh+gj54XgC7ktKSC8Dw3D7Ub8LgsQvTZ61rPxGXnqrGS5XgL1tEJET5IwPhAQfnib4KNPJseTqhAf9iVuluRjAINa32j5JY/coGyDbDyA+IjPWAQ+q8S2SQB+Qbutxx2eHlxj4eH7rHxfyaP1AB9ml1YjpaGm8ekm2tmDHpdN4EMHgQLqinNOsqyD/7PzpchsUPuWszSYWTC+TC1laprjqMlQosYCH09vPh9fv566KR2vo6PpAIxBnTx09NCOjqnWp0/gs3osnaqrHfZwC+a3aPMWjc+NuA0zSYgAGqrG722dbNncPug/H1+mFqSNWoL4tO2I7I+TVa+DjAbi0+BzA8+2FSI76Eho9zILBHDLcYsp73R2cNH44HN8rk+JJ/fMoVGOO/g59CYZLs+YeeHGHO4+SYmH1+JCf1lJvK/+O95gBPHJ2pop9/bL/lsLyu/uF0Z109F4fJlQ88gtZ80H9Pj92AvHZ/y5Pb4t1Hs9NDKtKMFnk9zcM/FlumwfJt48KAdlcMqmA2cBNRjQTVGquvZyUA3Tz+ha/rCUdejUga4YOcmGeu7uZ02e3uLxZYw/TDX1zMveQhFE19GAFSj87tIn4MsyCP9nEvtL4DXqaMNYHybv1GBzhVxRsZ0BvxGGqrW8qgQcvky1FGtpfM6HQYr64vFljOFWHCBvA5aXQawNwqR86HleakWpdDqdABQGCiv1OwGWOeDwkUI74jj4IzvQNOiesmDylUt+8p2fdzp2gfbaqNW+v9/dL6T2M7ZyERjSKgoUVbVjN9rVNHdXcRzcPLZNNlNVcGGgPB8ffCWrHWVl25Hzzd46a3s3ivh3JFqD1UQ9zjcbwx4qa68OuJTDcoEcmuqt4e9H+cb2tiZvlXIhvYhfyj95m521fJjX4rptx/HLZm1iq60x3GwnDeFfMbP2k8J2e/D8NxOSK/ZD3++PvWlozP3FQ2APoJ6wP8963LA6LBaXu/0FtPY/rL2945PTjY2NjxunJ8c7v/3q5vy39Onj2fXnpUqipcrZ+fHKwycJQRk7pzeA2dIS/B/6A/xzf/qrm/U07b16dftTK7w9v19KkCHDw/gqF7s/tRXz0qf7SuXV7U8bOisb9wQYMcDk788/9ybOSysfr8DQOd/5SdUdV5bu7j5Xzi7Ov54DXZxRfA+3AE3hEz+usBDNHi2sfLmGPujy5wDcuzzZgdpLxuruzs7lPbLBm70Hz63B2Hj07NckqX5wI4qjma+ycomG0cXJT4keVsYbvXK+BOufwfcV4A5cJffgcTPKj8LvflczH3Ghj4kzvz75Jf7nGFX+9eEDEb54bviqyvdetIPv6zzmSp8ugPmBMXRz/gsA3iL3d/nwgf+z+DJ7p1cVFEncXxw/7ITmod92bv9KxutfCN/f3HfukcsyL60uWT+n8FlhN/W2Lu/rDdd3uaTqOr/0bfVD/LHLv7KErtVyyXePxJfJfPlGorCbf24XHoPtnlxc3S39g+KlU2j4V2zm8kcwA40TM0cy+oD+5vAZJVic7M5ycsCNKdwWqCH8bg3/kEsZ5bORnRnKutWGn+CDzkixZVNRMplmIdMfKW2AeYAORW/RPRqfcXtWIbHY1atPxiLjg72TC+Rtr9Bt+gfiu6Z3bF0ZuIbRtUfJo5G2b/SHqMMcPreUXbda1SxKYTvFrnKwf0Q70lbKlmEV0Rxj5JScaxy1URLOUIb5Qd+wyspqJhMe1czyEcAa1UIlyvkZ1yn5hgEYwie3j8YHfNAlMIgkCAOB4MbOgkxw5/gSRUqgmgs41++ewU90zWaUksxnCHtsKUmasa/AcIXha+eRbVol+IKC3I74/GsZ/wBJGe6KWsevZKIPhqKV8acwA30fQh71DtDPJNXwXsJ38N8n4AMRNOgJWYcCL3g6d4Iru8dgvYsXbJUbNGBv0TLkhBxiHCQj1WgXQD/r2KUVTIPD55KfaOnCUZk3+dnEUvCGXgOaX4Q/WPkBLJHx73MhY8RTx8hMxj2JiIrw90Gegg8GtRW8CF1CHK8vv+zNbT23svfx1VmFrndvLpObc4IK2I0q2InXswA5j3g0F1oPxVf0yEQxAp/k1AbVId2K57rAaklCt/jOAPjI5ZAxY3zv8CvxJKGYg3sKn4YPzCAXn+9wB/E/1xu3c5iLgdl9YwtdYOTnO8l9WbmGN4rLt4SaMhjipZlSO0p+1q0L7YXiGzRD/HNvPbA68Pj948B4uA9dpYoPLMYu9H24PIVvlR4On1gVlOfgy+xunFVIPxMbXPp8c3my+/RxvLK7e/xP5fMSp8r9R3K9PVjVNb9itMpgRmzkQujy6vRZcI7hs0YBKY1BNxupzeUFHl+RnQ+Mcjo+Mr4zw01wdK/8LOsDAqvQCsmE3JGMyOezy4/HxmPnY3D8yceLm9TNAP+/Omf2vAGvPp7sc7s1E3SupRTRbx9CtTjrW41oMRjojRp/ao7Ht6wc0QONH+MDoVABRZLVZ+IDixDsoj5fVSo0I4yc/b8ntzszDuXd2+ONf64IMt4hXHxhpgxWvEtp48OyoqyRdBPJ5aeOGn39FDrINL4i3Q7t+5kjhUTMRivzY3xVMh2Vn40PrEPPMLVx3d1Vrq4vLi+Pb29vdyZHtLG7t3N7+9fl+cX1/eTJCOF1Krm4AwBffeIKfAVHcFUw3LZI4qOfmjrKZHowtorj+FyKHEwUffohFz1gfTWCvT0HfJmVndN7nBAe636yOoYD+/7bt4uLi1dYX1+dX1x8u7nhcsjT4B2nx/8pXK/xRa06pjGsu8D141/S6HnE+mCUYuFtTSCs88fxAeeXLOZ8aE6FPN5tCH9hYAzfegpfERuq/7ypg2nn9IwN3pQtIkLfAUSH6CT7ys3pp7EwaOdiaenfdFku6WQXxW8lZRl0Biwh4Mii+EB0Ajd9GD5ca43jc7cbMESuxjBKcc1mCEfuKHAn8PWVIcyKYnyhAp/lG9V8UQFR9BzwAQv8+4I9zfkhqunfceDhsvbvnfEY0jitVM7GHJ9VU0ar70vJesMoKs1CL5/8EmRbgz1HsHzFbL+Pkv1C/HIXqlVSeu8jcxUNRrenlAolO4KjncMHtx8Yq0qzA6Lu5A0l4BGam6vvlH6rCaoYKJl5aO/Lq3sexxREP8SX/AH+A6vAKQ9UVr4unX2ZmM375XJ5nQS//WG5XMUjEJb18d/VcnmYHNOf2EvQLQ+G5HzLB1c7whuTSY4mSaxY4brPnU5qaoHD3Gf+eBjVyu3lBYlenohvqfLtdPqD8JXTn/aQ5ddpd+fj+X3lbspQnTo5p7+s3F9fzmPZ8t/Wzu3lzRKed9OxHJqJMa9xflcXAh2WYeydnF6fMY+GF7AY6NjYBiH2t42TxaYN/3My9vZ2Ts+vvt1P+D0utKmcfav8e3qytyfQTdXe7fHJxtebytXd3ef7+2R1Af69v1u6q9x83fjyaSJAERqX8RvUMdCXDSD4xx4s+dXtEhISEhISEhISEhISEhISEhISEhISEhISEhISEhISEhISEhISEhISEhISEhISEhISEvqP6/8BZuZW1zEzMN0AAAAASUVORK5CYII=;" vertex="1" parent="1">
          <mxGeometry x="599.24" y="981" width="278" height="139" as="geometry" />
        </mxCell>
        <mxCell id="Q6RhIF0yRRc2ql-Qrk2--46" value="" style="shape=image;verticalLabelPosition=bottom;labelBackgroundColor=default;verticalAlign=top;aspect=fixed;imageAspect=0;image=data:image/png,iVBORw0KGgoAAAANSUhEUgAAAOEAAADhCAMAAAAJbSJIAAAAyVBMVEX///8QnVkaomAcomHw8PAVn1yL0K8jpWYPnFkAnlZvb28Wn13v8O8Am1MQnlhwcHD58/ZPoXfu9vRmZmbb6eJ2dnYXj1bK59kVlVew1cGQkJB+fn4AoV3/+f9DsHvn7eorg1ytra04pWul1b5luIzZ2dnj4+O+28yWya2X1bipqakWhFG7u7uSkpJ2vZYAlklVsoDNzc3Dw8OdnZ2FhYWqqqrO6tyMx6d8upoAikRfX19XuolItH/A5NJ3xqBKp3sTflAAh09TU1PHbHHNAAAMi0lEQVR4nO2bC3ubOBaGDZabRNjQKUubmuxk3QbaobhdLukls21n9v//qD26IpBwHCf7IProaydjZG6vvqNzDmRmsXBycnJycnJycnJycnJycnJycnJycnJycnJycnJycnL6NfXi86vj9Xnqu324Pv/x51lfS0X+QFe/zw7x83/OlgcIh7Tnv/8xM8Tvv/tnJi01Tp8QLoHwx/epb/ohevHn0EBKd5Dw2bM5ufjdAHg/4ZwQh0nmSMJn8wnUNycSzsfFMUBDQqWEvscJZ4N4wELfVCw6wrkEqolvPEiXKuFMXByzcHmmWTj0cCaIhnK/PBtPNH3CWQSqXg6X5iA1ROk8XBy1cBikvsnDOSAudTZqo3kR6oT296hDwuWZmdDnQbocENrv4lJ3cKQY8p5GI7QdsZ9pJOBYngkMhJZnVF9BXPI0agLkecZIaLeLy0GYMlJjtTdVixkgCg8Jqcwyho6UW2hah5ZnVJ8vOmGjaQ0uZUMTmKPUahfVrm3JyoQpRLmLYx7ajOj3AMdes/FSERirheWB2q1DuhL9HtZgFRLCYLU0E1rrosBgkHqAdmuQAsI/5z9GCC1FVD0cBeTVnvwJ/NWbMUI7S78v4nBA2PvYWUgQL3+OEf6w0UXf6Ft/NfrUxkAQrgBxRmvRHwtOFVA6SHMNLMUPv30ccdG+QL3HQ7+LUYEYrFbB6u+//mXWy6mBNF0dRPT7i5ACBgEQBi8/GPXX31MDaToCkNV6sQqDgDFevhzoA/1rn4eHCOka5QsxEDWRBqkRkWlqIE1X44SMTQHkDq44pBlxaiBNo4R0nPdry0CuQQbIZEScGkjTaJTKMtE5yLVaHUC8nBpIk9lD8dpJBeQerhQFly8vQfSH0NRAmoyEPcBlH7BDJJ841kurCU2/ROsiNOg7GPQBwcWhpgbSNPTQ5zVCvpgZAxRmns+KUI3N+wClzq0n9BU4HqTyvZPsRX0tj/KPMNRDPJ8aSNOVLAmCTq7AwB8HVFC9HqKNhEqC8ZUkE0hSk4MqYC9QbSRUJd/IBGoneghQrMVzoamBNPUJdT5ZBg8BAiLTpZ2Eg//CMgiUz4cjVAlVbx4eUhR1S4yt7gWUiFMDabrq3lKo5nH/RBU8DNhDnBpI05Wg0NaifJ4/Rh3i1ECaTJmme1JaHQlIFXpzIQxWPcoDjF7PRNAcCElonr05Tmee1wckiFMDaVII2XIM/PDt9T+O0ttNyPkEoHceTg2k6UqJR4a5unj3HB2j5+82Xs9AooupgTRdqe0L0+aBhJ5ADMFDKwmVzvMkQulhGFrp4UqFo+96GeFzVYxoMMIJ5SIMyV8LCVW4FXmi5YQfL66ELs6u12h9faaMfJSEHtRBDgh/QgsJebpXQDnhpksfjPBNKAc2H9GaETIXeYyGNnuo1HFOyCoB+cJ7wwm7XQShJ/gYoM0ejhHSdowTejqhmmUIoI0ejhOKJscXHnrS6VCsww7QXkK97SSEa3TzqdOKEq6UkRvpYQ/QSsIxD9+97fR6DYTr18rIO+FhL0bnRXhUPQwHgLMiBNM6IdNA56EEnBWhBtgbUgk7B+2tFt2LmEASfvl3p5trGLi+UUa+SMKwB+hZ+PQ0Wi3kIrvY8K5ts9mEIf27kdUiVEI0tLMvNROuTRXf0NMMAefj4QFCsFUhVAGpo1MDaXpI12b2UHXQRg8vRj38tJHq1iHXJ9l5q4ChlYShmRCh1+8VkeqwVgde80zTBzy3kVCPUo9XfK2nQYMBlVAAWkioR6n3kPc06ho8t9PDccKDfSksQ4WQvSr15pJpOOH7m04f6bPFR2Xkveohc3BmhMfmUmkhB5wVYZdl5TO+/iZK8p178yPcsC3oYHjFPwtZ+YMfg66tA5wPYb+n4VEa0hf4K0Yon55ClkRnSNitw0+ckI3Q9zRKlCoGzotQzaU/6PPhD1Mu9fqAMyD0BOHzfyqi9VAdEL+38Hp4VhKG3Vtros7D497TDBy08XdPIecSFoILD+naNA/tI7xY9TykxQ4In98v9X2pzYShfpObL6+P05e5EkKcHintwJkQsiGxKkMxoGq4+roDZ0AoXyupr0F7b9O0GqjOjNWE3SszA1uPz+ghO5OFhCqBN07H3xaGNELNgLZ6qJs4ZmDI4tO8Br3QVg8vDnN1/lH7RuiEgXYSHkGn8I0lURkJ9hGaMuZg8XmHw1Pls5HwYJTK9TVunyf2mx+huH1vpPpJA/uyj1CP0s4aHpwH+cIBon2EF73f4PYD7yCcx369PRyzj/AyHNy04LwPzwzo2fd/591s+iEq/teXe+g8LxzGJ9XmZmogTeIp9vxoNMY3Mv7t3dRAur5u+p3mMYjG+KQWfp0ax6Drn5tw5GlB0/mBxo2Ab35eT41j0ouf3zbhxRNo8+3ni6lhRvTq629Poa+vpgY5oBdPoakhnJycnJycnJycnJycnJx+VaGsqqoMTX0b/zdlRZtEUZK05UmM+e2ufOpbelLlzR1OgBAQY3zKrWZx3I59h3IIDj5vCE0TJFmLE4y3TdG0OEri3QlnwMl+7Ks9nBunRQ6fUZNMYvUavIubHJEpztI4zh9+CiDcjn0TxfA3jhJy/m18+7h7PUmohQDN5GZ5AuA4YZ4kKSxttEtwiwjh8QESnbReTCphCVaPPMcoYR3xc5d4nz+MEMdPRIjSBJ+w8voaJdxFLcstKGNR+gDCp/Kwxkk6Eph5VdZKhURkO1e2M9hk+VESwlipFtUyUk/OCPNM2WOdZeopc7GFEIlSlnpR74gHq8FRY/xivSNJEKeiQmbbiGzveUSjXUo2izJNS0lY07G0C/oqSpoOEQjLdQOnSXfspHkD10jamlOVaYSjtEDkYlsozvttQS7UQrJKdiczwuEiGmCquOBsOSkhMZwaszpQkowLOTGK6O6o4V8nJMg54Q4nET2ki68mjuQcEcKmvYPUGmE6q1mKWaKlW2gPJyTHt/miuovhxHd3KbkQOWOMt6cipklci7u5i5nu4IpQGdPbqm7gQqSY13ESbcuq3OLkjlgEgElTVQU0CVh4WMI+TZXtlFPCjhHcdMpcQhAGSU1mj54kh1OTf91iWkSgGJO0C3HQIlTXMAtVXZFVROyr8Sl1WiMkDpHGBheLHcwhDa8KJzHUkijBDblLtI8SSB4wmtDDIFlKQsxzFsnO3QWqgjjQ1oyQHZWncAmYJcwiGD7AWhbtFHwgc4jZfYlcVVenegjTKianbLegfQuEUCQxB4fLN4sqTjDbzNMkqshRBf+ahC0lhH0IWFbAHv9V609etzFdC0DIYg1Cb08qHr8ySuJqUcSiLWrjZiGrRYmTevEowRna/uzs4NykUvPRnJi2w4IIJhXmGozlCSSThLBPiQAmxmmTLfrKYMYqpacpgDCPk5SLtIqt3EqjpCNELY6TRs3hDxWwRP2CD9fLsigRKxsR2KKrTpBydguwVKTYRBAW8KOFVNqa2qI8jQqlHhLCDJYtZopiEjVyC+OOcJHvaYbbDyftaMHCinomwoVjuG/pbK4RwkfYRyOETAr30vbXi4RtIBlqhFUuhFAb3cqtXCGEclgDZJScjJjxbCk2oce5XazhJz/jDkd7kkpTfr02As+7/FSq6xDf9u1DW7kgi3hIiGKsrrA97tflfteW9W7ygYK7x1sxQXVKcyVpBJiJsAwBBsUCqaQ9EFm9uZgQTgj7YN6EFmtOmPLUQiamGUTpIsV81vIyo7VGzCkNA16ns4KdE8rTyYQwvUmU7Guo9OWe1ApyyvwOSn2GUEWWB7kAJMpdvsghFMldQjcbQTyiKlXqIZwngYoG+9BnJT57e0KLoJOph4R1zNNXG8MlEPQG9KgyjskdMNPgENb3tWI6ThIUWdKMkAWdYN5I1lAZY2gyEt5Z0h4Gyx4HMgf9Wq34yj4y4HawvS/2mJScISH8xElRAnxE4qOKIrwvdynnhtSctrfkQripS2gHH1U0aH8ISKRjFCupgpklaW3PBkjBIMlONIjQ1ZHttqCZhr3FEPukygqCe4tJJ0e6TdTe8ZoDq5LsX7J5TWtxRSJ8K2ombNDugIw++u1AXjfbdl/USiJEMLQtutSYl/t2Lydggaqm3ZaoIpkGVRlbQ/kO9um/zYJMCEPssKzih+eVaX+4Yru9FSkBZTv6fouOFqc8mD9O4q4glz6y57BT0LuwFYXgKefkQmWzMkgxdGE0WtP3qwiqBk6afcSePH5FoV1MUm+CI7tfdj9GVUue8U9viGehRzzSODk5OTk5OTk5OTk5OTk5OTk5OTk5OTk5Oc1U/wPSpOVuEO2SWwAAAABJRU5ErkJggg==;" vertex="1" parent="1">
          <mxGeometry x="1997.5" y="1008" width="225" height="225" as="geometry" />
        </mxCell>
        <mxCell id="Q6RhIF0yRRc2ql-Qrk2--49" value="&lt;b&gt;&lt;font size=&quot;1&quot; style=&quot;&quot;&gt;&lt;u style=&quot;font-size: 35px;&quot;&gt;REST API&lt;/u&gt;&lt;/font&gt;&lt;/b&gt;" style="text;html=1;strokeColor=none;fillColor=none;align=center;verticalAlign=middle;whiteSpace=wrap;rounded=0;" vertex="1" parent="1">
          <mxGeometry x="631.9300000000001" y="295" width="216.38" height="59" as="geometry" />
        </mxCell>
        <mxCell id="Q6RhIF0yRRc2ql-Qrk2--50" value="&lt;b&gt;&lt;font size=&quot;1&quot; style=&quot;&quot;&gt;&lt;u style=&quot;font-size: 35px;&quot;&gt;Scraping&lt;/u&gt;&lt;/font&gt;&lt;/b&gt;" style="text;html=1;strokeColor=none;fillColor=none;align=center;verticalAlign=middle;whiteSpace=wrap;rounded=0;" vertex="1" parent="1">
          <mxGeometry x="622" y="904" width="216.38" height="59" as="geometry" />
        </mxCell>
        <mxCell id="Q6RhIF0yRRc2ql-Qrk2--51" value="&lt;b&gt;&lt;font size=&quot;1&quot; style=&quot;&quot;&gt;&lt;u style=&quot;font-size: 35px;&quot;&gt;Data Cleaning&lt;/u&gt;&lt;/font&gt;&lt;/b&gt;" style="text;html=1;strokeColor=none;fillColor=none;align=center;verticalAlign=middle;whiteSpace=wrap;rounded=0;" vertex="1" parent="1">
          <mxGeometry x="1071" y="296" width="261.25" height="59" as="geometry" />
        </mxCell>
        <mxCell id="Q6RhIF0yRRc2ql-Qrk2--52" value="&lt;b&gt;&lt;font size=&quot;1&quot; style=&quot;&quot;&gt;&lt;u style=&quot;font-size: 35px;&quot;&gt;Database Adapter&lt;/u&gt;&lt;/font&gt;&lt;/b&gt;" style="text;html=1;strokeColor=none;fillColor=none;align=center;verticalAlign=middle;whiteSpace=wrap;rounded=0;" vertex="1" parent="1">
          <mxGeometry x="1075.61" y="904" width="261.25" height="59" as="geometry" />
        </mxCell>
        <mxCell id="Q6RhIF0yRRc2ql-Qrk2--53" value="&lt;font style=&quot;font-size: 25px;&quot;&gt;psycopg2&lt;/font&gt;" style="text;html=1;strokeColor=none;fillColor=none;align=center;verticalAlign=middle;whiteSpace=wrap;rounded=0;" vertex="1" parent="1">
          <mxGeometry x="1080" y="1186" width="261.25" height="59" as="geometry" />
        </mxCell>
        <mxCell id="Q6RhIF0yRRc2ql-Qrk2--54" value="&lt;b&gt;&lt;font size=&quot;1&quot; style=&quot;&quot;&gt;&lt;u style=&quot;font-size: 35px;&quot;&gt;Database&lt;br&gt;&lt;/u&gt;&lt;/font&gt;&lt;/b&gt;" style="text;html=1;strokeColor=none;fillColor=none;align=center;verticalAlign=middle;whiteSpace=wrap;rounded=0;" vertex="1" parent="1">
          <mxGeometry x="1518.3799999999999" y="296" width="261.25" height="59" as="geometry" />
        </mxCell>
        <mxCell id="Q6RhIF0yRRc2ql-Qrk2--55" value="&lt;b style=&quot;font-size: 35px; text-decoration-line: underline;&quot;&gt;Backup&lt;br&gt;&lt;/b&gt;&lt;font style=&quot;font-size: 23px;&quot;&gt;raw files (.csv, .xlsx, .json, etc.)&lt;/font&gt;" style="text;html=1;strokeColor=none;fillColor=none;align=center;verticalAlign=middle;whiteSpace=wrap;rounded=0;" vertex="1" parent="1">
          <mxGeometry x="1487.27" y="722" width="326.12" height="59" as="geometry" />
        </mxCell>
        <mxCell id="Q6RhIF0yRRc2ql-Qrk2--56" value="&lt;b&gt;&lt;font size=&quot;1&quot; style=&quot;&quot;&gt;&lt;u style=&quot;font-size: 35px;&quot;&gt;Code Repository&lt;/u&gt;&lt;/font&gt;&lt;/b&gt;" style="text;html=1;strokeColor=none;fillColor=none;align=center;verticalAlign=middle;whiteSpace=wrap;rounded=0;" vertex="1" parent="1">
          <mxGeometry x="1498.77" y="1030" width="303.12" height="59" as="geometry" />
        </mxCell>
        <mxCell id="Q6RhIF0yRRc2ql-Qrk2--57" value="&lt;b&gt;&lt;font size=&quot;1&quot; style=&quot;&quot;&gt;&lt;u style=&quot;font-size: 35px;&quot;&gt;Server&lt;/u&gt;&lt;/font&gt;&lt;/b&gt;" style="text;html=1;strokeColor=none;fillColor=none;align=center;verticalAlign=middle;whiteSpace=wrap;rounded=0;fontColor=#FF0000;" vertex="1" parent="1">
          <mxGeometry x="2350" y="981" width="261.25" height="59" as="geometry" />
        </mxCell>
        <mxCell id="Q6RhIF0yRRc2ql-Qrk2--59" value="&lt;b&gt;&lt;font size=&quot;1&quot; style=&quot;&quot;&gt;&lt;u style=&quot;font-size: 30px;&quot;&gt;Local Dev&lt;/u&gt;&lt;/font&gt;&lt;/b&gt;" style="text;html=1;strokeColor=none;fillColor=none;align=center;verticalAlign=middle;whiteSpace=wrap;rounded=0;" vertex="1" parent="1">
          <mxGeometry x="-9.75" y="940.39" width="261.25" height="59" as="geometry" />
        </mxCell>
        <mxCell id="Q6RhIF0yRRc2ql-Qrk2--60" value="" style="shape=image;verticalLabelPosition=bottom;labelBackgroundColor=default;verticalAlign=top;aspect=fixed;imageAspect=0;image=https://upload.wikimedia.org/wikipedia/commons/thumb/3/38/Jupyter_logo.svg/1200px-Jupyter_logo.svg.png;" vertex="1" parent="1">
          <mxGeometry x="2016.91" y="736.01" width="168.18" height="195" as="geometry" />
        </mxCell>
      </root>
    </mxGraphModel>
  </diagram>
</mxfile>
